<mxfile host="app.diagrams.net" agent="Mozilla/5.0 (X11; Linux x86_64; rv:143.0) Gecko/20100101 Firefox/143.0" version="28.2.7">
  <diagram name="VersiÃ³n3" id="SUX6agpaJw3A8wHWr_XM">
    <mxGraphModel grid="1" page="1" gridSize="10" guides="1" tooltips="1" connect="1" arrows="1" fold="1" pageScale="1" pageWidth="850" pageHeight="1100" math="0" shadow="0">
      <root>
        <mxCell id="hk0QQ_2dUpYuEPjXE7zu-0" />
        <mxCell id="hk0QQ_2dUpYuEPjXE7zu-1" parent="hk0QQ_2dUpYuEPjXE7zu-0" />
        <mxCell id="hk0QQ_2dUpYuEPjXE7zu-2" value="" style="edgeStyle=none;shape=connector;rounded=0;orthogonalLoop=1;jettySize=auto;html=1;strokeWidth=2;align=center;verticalAlign=middle;fontFamily=Helvetica;fontSize=14;fontColor=default;labelBackgroundColor=default;endArrow=none;endFill=0;entryX=0.5;entryY=0;entryDx=0;entryDy=0;exitX=0.25;exitY=1;exitDx=0;exitDy=0;" edge="1" parent="hk0QQ_2dUpYuEPjXE7zu-1" source="hk0QQ_2dUpYuEPjXE7zu-7">
          <mxGeometry relative="1" as="geometry">
            <mxPoint x="150" y="44" as="sourcePoint" />
            <mxPoint x="-1280" y="339" as="targetPoint" />
            <Array as="points">
              <mxPoint x="-1280" y="44" />
            </Array>
          </mxGeometry>
        </mxCell>
        <mxCell id="hk0QQ_2dUpYuEPjXE7zu-3" style="edgeStyle=none;shape=connector;rounded=0;orthogonalLoop=1;jettySize=auto;html=1;strokeWidth=2;align=center;verticalAlign=middle;fontFamily=Helvetica;fontSize=14;fontColor=default;labelBackgroundColor=default;endArrow=none;endFill=0;entryX=0;entryY=0.75;entryDx=0;entryDy=0;" edge="1" parent="hk0QQ_2dUpYuEPjXE7zu-1" target="hk0QQ_2dUpYuEPjXE7zu-181">
          <mxGeometry relative="1" as="geometry">
            <mxPoint x="1374" y="-380" as="targetPoint" />
            <Array as="points">
              <mxPoint x="489.5" y="10" />
              <mxPoint x="489" y="-380" />
            </Array>
            <mxPoint x="489.5" y="30" as="sourcePoint" />
          </mxGeometry>
        </mxCell>
        <mxCell id="hk0QQ_2dUpYuEPjXE7zu-4" style="edgeStyle=none;shape=wire;rounded=0;orthogonalLoop=1;jettySize=auto;html=1;exitX=0.25;exitY=0;exitDx=0;exitDy=0;entryX=1;entryY=1;entryDx=0;entryDy=0;dashed=1;strokeWidth=2;align=center;verticalAlign=middle;fontFamily=Helvetica;fontSize=14;fontColor=default;fontStyle=1;labelBackgroundColor=default;endArrow=none;endFill=0;" edge="1" parent="hk0QQ_2dUpYuEPjXE7zu-1" source="hk0QQ_2dUpYuEPjXE7zu-7" target="hk0QQ_2dUpYuEPjXE7zu-19">
          <mxGeometry relative="1" as="geometry" />
        </mxCell>
        <mxCell id="hk0QQ_2dUpYuEPjXE7zu-5" style="edgeStyle=none;shape=wire;rounded=0;orthogonalLoop=1;jettySize=auto;html=1;exitX=0;exitY=0;exitDx=0;exitDy=0;dashed=1;strokeWidth=2;align=center;verticalAlign=middle;fontFamily=Helvetica;fontSize=14;fontColor=default;fontStyle=1;labelBackgroundColor=default;endArrow=none;endFill=0;" edge="1" parent="hk0QQ_2dUpYuEPjXE7zu-1" source="hk0QQ_2dUpYuEPjXE7zu-7">
          <mxGeometry relative="1" as="geometry">
            <mxPoint x="-75" y="-60" as="targetPoint" />
          </mxGeometry>
        </mxCell>
        <mxCell id="hk0QQ_2dUpYuEPjXE7zu-6" style="edgeStyle=none;shape=link;rounded=0;orthogonalLoop=1;jettySize=auto;html=1;exitX=0.5;exitY=1;exitDx=0;exitDy=0;entryX=0;entryY=0.5;entryDx=0;entryDy=0;strokeWidth=2;align=center;verticalAlign=middle;fontFamily=Helvetica;fontSize=14;fontColor=default;fontStyle=1;labelBackgroundColor=default;endArrow=none;endFill=0;" edge="1" parent="hk0QQ_2dUpYuEPjXE7zu-1" source="hk0QQ_2dUpYuEPjXE7zu-7" target="hk0QQ_2dUpYuEPjXE7zu-36">
          <mxGeometry relative="1" as="geometry" />
        </mxCell>
        <mxCell id="hk0QQ_2dUpYuEPjXE7zu-7" value="&lt;font&gt;Persona&lt;/font&gt;" style="whiteSpace=wrap;html=1;align=center;fontSize=14;fontStyle=1;strokeWidth=2;" vertex="1" parent="hk0QQ_2dUpYuEPjXE7zu-1">
          <mxGeometry x="125" width="100" height="40" as="geometry" />
        </mxCell>
        <mxCell id="hk0QQ_2dUpYuEPjXE7zu-8" value="NombreCompleto" style="ellipse;whiteSpace=wrap;html=1;align=center;verticalAlign=middle;fontFamily=Helvetica;fontSize=14;fontStyle=1;strokeWidth=2;" vertex="1" parent="hk0QQ_2dUpYuEPjXE7zu-1">
          <mxGeometry x="-215" y="-90" width="150" height="50" as="geometry" />
        </mxCell>
        <mxCell id="hk0QQ_2dUpYuEPjXE7zu-9" style="edgeStyle=none;shape=wire;rounded=0;orthogonalLoop=1;jettySize=auto;html=1;exitX=1;exitY=0.5;exitDx=0;exitDy=0;entryX=0;entryY=0.5;entryDx=0;entryDy=0;dashed=1;strokeWidth=2;align=center;verticalAlign=middle;fontFamily=Helvetica;fontSize=14;fontColor=default;fontStyle=1;labelBackgroundColor=default;endArrow=none;endFill=0;" edge="1" parent="hk0QQ_2dUpYuEPjXE7zu-1" source="hk0QQ_2dUpYuEPjXE7zu-10" target="hk0QQ_2dUpYuEPjXE7zu-8">
          <mxGeometry relative="1" as="geometry" />
        </mxCell>
        <mxCell id="hk0QQ_2dUpYuEPjXE7zu-10" value="ApellidoPaterno" style="ellipse;whiteSpace=wrap;html=1;align=center;verticalAlign=middle;fontFamily=Helvetica;fontSize=14;fontStyle=1;strokeWidth=2;" vertex="1" parent="hk0QQ_2dUpYuEPjXE7zu-1">
          <mxGeometry x="-415" y="-85" width="140" height="40" as="geometry" />
        </mxCell>
        <mxCell id="hk0QQ_2dUpYuEPjXE7zu-11" style="edgeStyle=none;shape=wire;rounded=0;orthogonalLoop=1;jettySize=auto;html=1;exitX=1;exitY=0;exitDx=0;exitDy=0;entryX=0.5;entryY=1;entryDx=0;entryDy=0;dashed=1;strokeWidth=2;align=center;verticalAlign=middle;fontFamily=Helvetica;fontSize=14;fontColor=default;fontStyle=1;labelBackgroundColor=default;endArrow=none;endFill=0;" edge="1" parent="hk0QQ_2dUpYuEPjXE7zu-1" source="hk0QQ_2dUpYuEPjXE7zu-12" target="hk0QQ_2dUpYuEPjXE7zu-8">
          <mxGeometry relative="1" as="geometry" />
        </mxCell>
        <mxCell id="hk0QQ_2dUpYuEPjXE7zu-12" value="ApellidoMaterno" style="ellipse;whiteSpace=wrap;html=1;align=center;verticalAlign=middle;fontFamily=Helvetica;fontSize=14;fontStyle=1;strokeWidth=2;" vertex="1" parent="hk0QQ_2dUpYuEPjXE7zu-1">
          <mxGeometry x="-365" y="-20" width="140" height="40" as="geometry" />
        </mxCell>
        <mxCell id="hk0QQ_2dUpYuEPjXE7zu-13" style="edgeStyle=none;shape=wire;rounded=0;orthogonalLoop=1;jettySize=auto;html=1;exitX=1;exitY=1;exitDx=0;exitDy=0;entryX=0.5;entryY=0;entryDx=0;entryDy=0;dashed=1;strokeWidth=2;align=center;verticalAlign=middle;fontFamily=Helvetica;fontSize=14;fontColor=default;fontStyle=1;labelBackgroundColor=default;endArrow=none;endFill=0;" edge="1" parent="hk0QQ_2dUpYuEPjXE7zu-1" source="hk0QQ_2dUpYuEPjXE7zu-14" target="hk0QQ_2dUpYuEPjXE7zu-8">
          <mxGeometry relative="1" as="geometry" />
        </mxCell>
        <mxCell id="hk0QQ_2dUpYuEPjXE7zu-14" value="Nombre" style="ellipse;whiteSpace=wrap;html=1;align=center;verticalAlign=middle;fontFamily=Helvetica;fontSize=14;fontStyle=1;strokeWidth=2;" vertex="1" parent="hk0QQ_2dUpYuEPjXE7zu-1">
          <mxGeometry x="-345" y="-160" width="140" height="40" as="geometry" />
        </mxCell>
        <mxCell id="hk0QQ_2dUpYuEPjXE7zu-15" style="edgeStyle=none;shape=wire;rounded=0;orthogonalLoop=1;jettySize=auto;html=1;exitX=0.5;exitY=1;exitDx=0;exitDy=0;entryX=0.5;entryY=0;entryDx=0;entryDy=0;dashed=1;strokeWidth=2;align=center;verticalAlign=middle;fontFamily=Helvetica;fontSize=14;fontColor=default;fontStyle=1;labelBackgroundColor=default;endArrow=none;endFill=0;" edge="1" parent="hk0QQ_2dUpYuEPjXE7zu-1" source="hk0QQ_2dUpYuEPjXE7zu-16" target="hk0QQ_2dUpYuEPjXE7zu-7">
          <mxGeometry relative="1" as="geometry" />
        </mxCell>
        <mxCell id="hk0QQ_2dUpYuEPjXE7zu-16" value="FechaNacimiento" style="ellipse;whiteSpace=wrap;html=1;align=center;verticalAlign=middle;fontFamily=Helvetica;fontSize=14;fontStyle=1;strokeWidth=2;" vertex="1" parent="hk0QQ_2dUpYuEPjXE7zu-1">
          <mxGeometry x="100" y="-160" width="150" height="50" as="geometry" />
        </mxCell>
        <mxCell id="hk0QQ_2dUpYuEPjXE7zu-17" style="edgeStyle=none;shape=wire;rounded=0;orthogonalLoop=1;jettySize=auto;html=1;exitX=0;exitY=1;exitDx=0;exitDy=0;dashed=1;align=center;verticalAlign=middle;fontFamily=Helvetica;fontSize=14;fontColor=default;fontStyle=1;labelBackgroundColor=default;endArrow=none;endFill=0;strokeWidth=2;" edge="1" parent="hk0QQ_2dUpYuEPjXE7zu-1" source="hk0QQ_2dUpYuEPjXE7zu-18" target="hk0QQ_2dUpYuEPjXE7zu-7">
          <mxGeometry relative="1" as="geometry" />
        </mxCell>
        <mxCell id="hk0QQ_2dUpYuEPjXE7zu-18" value="Sexo" style="ellipse;whiteSpace=wrap;html=1;align=center;verticalAlign=middle;fontFamily=Helvetica;fontSize=14;fontStyle=1;strokeWidth=2;" vertex="1" parent="hk0QQ_2dUpYuEPjXE7zu-1">
          <mxGeometry x="325" y="-130" width="80" height="50" as="geometry" />
        </mxCell>
        <mxCell id="hk0QQ_2dUpYuEPjXE7zu-19" value="Edad" style="ellipse;whiteSpace=wrap;html=1;align=center;dashed=1;verticalAlign=middle;fontFamily=Helvetica;fontSize=14;fontStyle=1;strokeWidth=2;" vertex="1" parent="hk0QQ_2dUpYuEPjXE7zu-1">
          <mxGeometry x="-35" y="-130" width="100" height="40" as="geometry" />
        </mxCell>
        <mxCell id="hk0QQ_2dUpYuEPjXE7zu-20" style="edgeStyle=none;shape=link;rounded=0;orthogonalLoop=1;jettySize=auto;html=1;exitX=0.5;exitY=1;exitDx=0;exitDy=0;entryX=0;entryY=0.5;entryDx=0;entryDy=0;strokeWidth=2;align=center;verticalAlign=middle;fontFamily=Helvetica;fontSize=14;fontColor=default;fontStyle=1;labelBackgroundColor=default;endArrow=none;endFill=0;" edge="1" parent="hk0QQ_2dUpYuEPjXE7zu-1" source="hk0QQ_2dUpYuEPjXE7zu-24">
          <mxGeometry relative="1" as="geometry">
            <mxPoint x="-450" y="600" as="targetPoint" />
          </mxGeometry>
        </mxCell>
        <mxCell id="hk0QQ_2dUpYuEPjXE7zu-21" style="edgeStyle=none;shape=wire;rounded=0;orthogonalLoop=1;jettySize=auto;html=1;exitX=1;exitY=0.5;exitDx=0;exitDy=0;entryX=0;entryY=0;entryDx=0;entryDy=0;dashed=1;strokeWidth=2;align=center;verticalAlign=middle;fontFamily=Helvetica;fontSize=14;fontColor=default;fontStyle=1;labelBackgroundColor=default;endArrow=none;endFill=0;" edge="1" parent="hk0QQ_2dUpYuEPjXE7zu-1" source="hk0QQ_2dUpYuEPjXE7zu-24" target="hk0QQ_2dUpYuEPjXE7zu-76">
          <mxGeometry relative="1" as="geometry" />
        </mxCell>
        <mxCell id="hk0QQ_2dUpYuEPjXE7zu-22" style="edgeStyle=none;shape=wire;rounded=0;orthogonalLoop=1;jettySize=auto;html=1;exitX=0.75;exitY=1;exitDx=0;exitDy=0;entryX=0.5;entryY=0;entryDx=0;entryDy=0;dashed=1;strokeWidth=2;align=center;verticalAlign=middle;fontFamily=Helvetica;fontSize=14;fontColor=default;fontStyle=1;labelBackgroundColor=default;endArrow=none;endFill=0;" edge="1" parent="hk0QQ_2dUpYuEPjXE7zu-1" source="hk0QQ_2dUpYuEPjXE7zu-24" target="hk0QQ_2dUpYuEPjXE7zu-77">
          <mxGeometry relative="1" as="geometry" />
        </mxCell>
        <mxCell id="hk0QQ_2dUpYuEPjXE7zu-23" style="edgeStyle=none;shape=link;rounded=0;orthogonalLoop=1;jettySize=auto;html=1;exitX=0.5;exitY=0;exitDx=0;exitDy=0;strokeWidth=2;align=center;verticalAlign=middle;fontFamily=Helvetica;fontSize=14;fontColor=default;labelBackgroundColor=default;endArrow=none;endFill=0;" edge="1" parent="hk0QQ_2dUpYuEPjXE7zu-1" source="hk0QQ_2dUpYuEPjXE7zu-24" target="hk0QQ_2dUpYuEPjXE7zu-213">
          <mxGeometry relative="1" as="geometry">
            <mxPoint x="-445" y="-295.3334554036456" as="targetPoint" />
          </mxGeometry>
        </mxCell>
        <mxCell id="hk0QQ_2dUpYuEPjXE7zu-24" value="&lt;font&gt;Staff&lt;/font&gt;" style="whiteSpace=wrap;html=1;align=center;fontSize=14;fontStyle=1;strokeWidth=2;" vertex="1" parent="hk0QQ_2dUpYuEPjXE7zu-1">
          <mxGeometry x="-500" y="400" width="100" height="40" as="geometry" />
        </mxCell>
        <mxCell id="hk0QQ_2dUpYuEPjXE7zu-25" style="edgeStyle=none;shape=wire;rounded=0;orthogonalLoop=1;jettySize=auto;html=1;exitX=1;exitY=0.5;exitDx=0;exitDy=0;entryX=0;entryY=0.5;entryDx=0;entryDy=0;dashed=1;strokeWidth=2;align=center;verticalAlign=middle;fontFamily=Helvetica;fontSize=14;fontColor=default;fontStyle=1;labelBackgroundColor=default;endArrow=none;endFill=0;" edge="1" parent="hk0QQ_2dUpYuEPjXE7zu-1" source="hk0QQ_2dUpYuEPjXE7zu-32" target="hk0QQ_2dUpYuEPjXE7zu-39">
          <mxGeometry relative="1" as="geometry" />
        </mxCell>
        <mxCell id="hk0QQ_2dUpYuEPjXE7zu-26" style="edgeStyle=none;shape=wire;rounded=0;orthogonalLoop=1;jettySize=auto;html=1;exitX=1;exitY=0.5;exitDx=0;exitDy=0;entryX=0;entryY=0.5;entryDx=0;entryDy=0;dashed=1;strokeWidth=2;align=center;verticalAlign=middle;fontFamily=Helvetica;fontSize=14;fontColor=default;fontStyle=1;labelBackgroundColor=default;endArrow=none;endFill=0;" edge="1" parent="hk0QQ_2dUpYuEPjXE7zu-1" source="hk0QQ_2dUpYuEPjXE7zu-32" target="hk0QQ_2dUpYuEPjXE7zu-40">
          <mxGeometry relative="1" as="geometry" />
        </mxCell>
        <mxCell id="hk0QQ_2dUpYuEPjXE7zu-27" style="edgeStyle=none;shape=wire;rounded=0;orthogonalLoop=1;jettySize=auto;html=1;exitX=0.75;exitY=0;exitDx=0;exitDy=0;entryX=0;entryY=0.5;entryDx=0;entryDy=0;dashed=1;strokeWidth=2;align=center;verticalAlign=middle;fontFamily=Helvetica;fontSize=14;fontColor=default;fontStyle=1;labelBackgroundColor=default;endArrow=none;endFill=0;" edge="1" parent="hk0QQ_2dUpYuEPjXE7zu-1" source="hk0QQ_2dUpYuEPjXE7zu-32" target="hk0QQ_2dUpYuEPjXE7zu-75">
          <mxGeometry relative="1" as="geometry" />
        </mxCell>
        <mxCell id="hk0QQ_2dUpYuEPjXE7zu-28" style="edgeStyle=none;shape=wire;rounded=0;orthogonalLoop=1;jettySize=auto;html=1;exitX=1;exitY=0.5;exitDx=0;exitDy=0;entryX=0;entryY=0.5;entryDx=0;entryDy=0;dashed=1;strokeWidth=2;align=center;verticalAlign=middle;fontFamily=Helvetica;fontSize=14;fontColor=default;fontStyle=1;labelBackgroundColor=default;endArrow=none;endFill=0;" edge="1" parent="hk0QQ_2dUpYuEPjXE7zu-1" source="hk0QQ_2dUpYuEPjXE7zu-32" target="hk0QQ_2dUpYuEPjXE7zu-82">
          <mxGeometry relative="1" as="geometry">
            <mxPoint x="635" y="510" as="targetPoint" />
          </mxGeometry>
        </mxCell>
        <mxCell id="hk0QQ_2dUpYuEPjXE7zu-29" style="rounded=0;orthogonalLoop=1;jettySize=auto;html=1;entryX=0.5;entryY=0;entryDx=0;entryDy=0;endArrow=none;endFill=0;strokeWidth=2;shape=link;fontSize=14;" edge="1" parent="hk0QQ_2dUpYuEPjXE7zu-1">
          <mxGeometry relative="1" as="geometry">
            <mxPoint x="615" y="440" as="sourcePoint" />
            <mxPoint x="615" y="620" as="targetPoint" />
          </mxGeometry>
        </mxCell>
        <mxCell id="hk0QQ_2dUpYuEPjXE7zu-30" style="edgeStyle=none;shape=connector;rounded=0;orthogonalLoop=1;jettySize=auto;html=1;exitX=0.5;exitY=1;exitDx=0;exitDy=0;strokeWidth=2;align=center;verticalAlign=middle;fontFamily=Helvetica;fontSize=14;fontColor=default;labelBackgroundColor=default;endArrow=none;endFill=0;startArrow=classic;startFill=1;" edge="1" parent="hk0QQ_2dUpYuEPjXE7zu-1" source="hk0QQ_2dUpYuEPjXE7zu-32">
          <mxGeometry relative="1" as="geometry">
            <mxPoint x="615" y="440" as="targetPoint" />
          </mxGeometry>
        </mxCell>
        <mxCell id="hk0QQ_2dUpYuEPjXE7zu-31" style="edgeStyle=none;shape=connector;rounded=0;orthogonalLoop=1;jettySize=auto;html=1;exitX=0.5;exitY=0;exitDx=0;exitDy=0;entryX=0;entryY=0.5;entryDx=0;entryDy=0;strokeWidth=2;align=center;verticalAlign=middle;fontFamily=Helvetica;fontSize=14;fontColor=default;labelBackgroundColor=default;endArrow=none;endFill=0;startArrow=classic;startFill=1;" edge="1" parent="hk0QQ_2dUpYuEPjXE7zu-1" source="hk0QQ_2dUpYuEPjXE7zu-32" target="hk0QQ_2dUpYuEPjXE7zu-214">
          <mxGeometry relative="1" as="geometry">
            <Array as="points">
              <mxPoint x="615" y="60" />
            </Array>
          </mxGeometry>
        </mxCell>
        <mxCell id="hk0QQ_2dUpYuEPjXE7zu-32" value="&lt;font&gt;ParticipanteUNAM&lt;/font&gt;" style="whiteSpace=wrap;html=1;align=center;fontSize=14;fontStyle=1;strokeWidth=2;" vertex="1" parent="hk0QQ_2dUpYuEPjXE7zu-1">
          <mxGeometry x="545" y="390" width="140" height="40" as="geometry" />
        </mxCell>
        <mxCell id="hk0QQ_2dUpYuEPjXE7zu-33" style="edgeStyle=none;shape=wire;rounded=0;orthogonalLoop=1;jettySize=auto;html=1;exitX=0.5;exitY=0;exitDx=0;exitDy=0;entryX=0;entryY=0.5;entryDx=0;entryDy=0;dashed=1;strokeWidth=2;align=center;verticalAlign=middle;fontFamily=Helvetica;fontSize=14;fontColor=default;fontStyle=1;labelBackgroundColor=default;endArrow=none;endFill=0;" edge="1" parent="hk0QQ_2dUpYuEPjXE7zu-1" source="hk0QQ_2dUpYuEPjXE7zu-36" target="hk0QQ_2dUpYuEPjXE7zu-32">
          <mxGeometry relative="1" as="geometry" />
        </mxCell>
        <mxCell id="hk0QQ_2dUpYuEPjXE7zu-34" style="edgeStyle=none;shape=wire;rounded=0;orthogonalLoop=1;jettySize=auto;html=1;exitX=0.5;exitY=1;exitDx=0;exitDy=0;entryX=0.5;entryY=0;entryDx=0;entryDy=0;dashed=1;strokeWidth=2;align=center;verticalAlign=middle;fontFamily=Helvetica;fontSize=14;fontColor=default;fontStyle=1;labelBackgroundColor=default;endArrow=none;endFill=0;" edge="1" parent="hk0QQ_2dUpYuEPjXE7zu-1" source="hk0QQ_2dUpYuEPjXE7zu-36" target="hk0QQ_2dUpYuEPjXE7zu-24">
          <mxGeometry relative="1" as="geometry" />
        </mxCell>
        <mxCell id="hk0QQ_2dUpYuEPjXE7zu-35" style="edgeStyle=none;shape=wire;rounded=0;orthogonalLoop=1;jettySize=auto;html=1;exitX=1;exitY=0.5;exitDx=0;exitDy=0;entryX=0.5;entryY=0;entryDx=0;entryDy=0;dashed=1;strokeWidth=2;align=center;verticalAlign=middle;fontFamily=Helvetica;fontSize=14;fontColor=default;fontStyle=1;labelBackgroundColor=default;endArrow=none;endFill=0;" edge="1" parent="hk0QQ_2dUpYuEPjXE7zu-1" source="hk0QQ_2dUpYuEPjXE7zu-36" target="hk0QQ_2dUpYuEPjXE7zu-81">
          <mxGeometry relative="1" as="geometry" />
        </mxCell>
        <mxCell id="hk0QQ_2dUpYuEPjXE7zu-36" value="" style="triangle;whiteSpace=wrap;html=1;align=center;verticalAlign=middle;fontFamily=Helvetica;fontSize=14;fontStyle=1;labelBackgroundColor=default;strokeWidth=2;rotation=90;" vertex="1" parent="hk0QQ_2dUpYuEPjXE7zu-1">
          <mxGeometry x="145" y="90" width="60" height="80" as="geometry" />
        </mxCell>
        <mxCell id="hk0QQ_2dUpYuEPjXE7zu-37" value="NumCuenta" style="ellipse;whiteSpace=wrap;html=1;align=center;fontStyle=1;verticalAlign=middle;fontFamily=Helvetica;fontSize=14;labelBackgroundColor=default;strokeWidth=2;" vertex="1" parent="hk0QQ_2dUpYuEPjXE7zu-1">
          <mxGeometry x="755" y="335" width="100" height="40" as="geometry" />
        </mxCell>
        <mxCell id="hk0QQ_2dUpYuEPjXE7zu-38" style="edgeStyle=none;shape=wire;rounded=0;orthogonalLoop=1;jettySize=auto;html=1;exitX=1;exitY=0;exitDx=0;exitDy=0;entryX=0.234;entryY=0.976;entryDx=0;entryDy=0;entryPerimeter=0;dashed=1;strokeWidth=2;align=center;verticalAlign=middle;fontFamily=Helvetica;fontSize=14;fontColor=default;fontStyle=1;labelBackgroundColor=default;endArrow=none;endFill=0;" edge="1" parent="hk0QQ_2dUpYuEPjXE7zu-1" source="hk0QQ_2dUpYuEPjXE7zu-32" target="hk0QQ_2dUpYuEPjXE7zu-37">
          <mxGeometry relative="1" as="geometry" />
        </mxCell>
        <mxCell id="hk0QQ_2dUpYuEPjXE7zu-39" value="Facultad" style="ellipse;whiteSpace=wrap;html=1;align=center;verticalAlign=middle;fontFamily=Helvetica;fontSize=14;fontStyle=1;labelBackgroundColor=default;strokeWidth=2;" vertex="1" parent="hk0QQ_2dUpYuEPjXE7zu-1">
          <mxGeometry x="755" y="380" width="100" height="40" as="geometry" />
        </mxCell>
        <mxCell id="hk0QQ_2dUpYuEPjXE7zu-40" value="Carrera" style="ellipse;whiteSpace=wrap;html=1;align=center;verticalAlign=middle;fontFamily=Helvetica;fontSize=14;fontStyle=1;labelBackgroundColor=default;strokeWidth=2;" vertex="1" parent="hk0QQ_2dUpYuEPjXE7zu-1">
          <mxGeometry x="715" y="420" width="100" height="40" as="geometry" />
        </mxCell>
        <mxCell id="hk0QQ_2dUpYuEPjXE7zu-41" style="edgeStyle=none;shape=wire;rounded=0;orthogonalLoop=1;jettySize=auto;html=1;exitX=1;exitY=0.5;exitDx=0;exitDy=0;entryX=0;entryY=0.5;entryDx=0;entryDy=0;dashed=1;strokeWidth=2;align=center;verticalAlign=middle;fontFamily=Helvetica;fontSize=14;fontColor=default;fontStyle=1;labelBackgroundColor=default;endArrow=none;endFill=0;" edge="1" parent="hk0QQ_2dUpYuEPjXE7zu-1" source="hk0QQ_2dUpYuEPjXE7zu-42" target="hk0QQ_2dUpYuEPjXE7zu-24">
          <mxGeometry relative="1" as="geometry" />
        </mxCell>
        <mxCell id="hk0QQ_2dUpYuEPjXE7zu-42" value="Domicilio" style="ellipse;whiteSpace=wrap;html=1;align=center;verticalAlign=middle;fontFamily=Helvetica;fontSize=14;fontStyle=1;strokeWidth=2;" vertex="1" parent="hk0QQ_2dUpYuEPjXE7zu-1">
          <mxGeometry x="-650" y="395" width="100" height="50" as="geometry" />
        </mxCell>
        <mxCell id="hk0QQ_2dUpYuEPjXE7zu-43" style="edgeStyle=none;shape=wire;rounded=0;orthogonalLoop=1;jettySize=auto;html=1;exitX=1;exitY=1;exitDx=0;exitDy=0;entryX=0.5;entryY=0;entryDx=0;entryDy=0;dashed=1;strokeWidth=2;align=center;verticalAlign=middle;fontFamily=Helvetica;fontSize=14;fontColor=default;fontStyle=1;labelBackgroundColor=default;endArrow=none;endFill=0;" edge="1" parent="hk0QQ_2dUpYuEPjXE7zu-1" source="hk0QQ_2dUpYuEPjXE7zu-44" target="hk0QQ_2dUpYuEPjXE7zu-42">
          <mxGeometry relative="1" as="geometry" />
        </mxCell>
        <mxCell id="hk0QQ_2dUpYuEPjXE7zu-44" value="Ciudad" style="ellipse;whiteSpace=wrap;html=1;align=center;verticalAlign=middle;fontFamily=Helvetica;fontSize=14;fontStyle=1;strokeWidth=2;" vertex="1" parent="hk0QQ_2dUpYuEPjXE7zu-1">
          <mxGeometry x="-690" y="330" width="80" height="50" as="geometry" />
        </mxCell>
        <mxCell id="hk0QQ_2dUpYuEPjXE7zu-45" style="edgeStyle=none;shape=wire;rounded=0;orthogonalLoop=1;jettySize=auto;html=1;exitX=1;exitY=1;exitDx=0;exitDy=0;entryX=0;entryY=0;entryDx=0;entryDy=0;dashed=1;strokeWidth=2;align=center;verticalAlign=middle;fontFamily=Helvetica;fontSize=14;fontColor=default;fontStyle=1;labelBackgroundColor=default;endArrow=none;endFill=0;" edge="1" parent="hk0QQ_2dUpYuEPjXE7zu-1" source="hk0QQ_2dUpYuEPjXE7zu-46" target="hk0QQ_2dUpYuEPjXE7zu-42">
          <mxGeometry relative="1" as="geometry" />
        </mxCell>
        <mxCell id="hk0QQ_2dUpYuEPjXE7zu-46" value="Calle" style="ellipse;whiteSpace=wrap;html=1;align=center;verticalAlign=middle;fontFamily=Helvetica;fontSize=14;fontStyle=1;strokeWidth=2;" vertex="1" parent="hk0QQ_2dUpYuEPjXE7zu-1">
          <mxGeometry x="-790" y="340" width="80" height="50" as="geometry" />
        </mxCell>
        <mxCell id="hk0QQ_2dUpYuEPjXE7zu-47" style="edgeStyle=none;shape=wire;rounded=0;orthogonalLoop=1;jettySize=auto;html=1;exitX=1;exitY=0.5;exitDx=0;exitDy=0;entryX=0;entryY=0.5;entryDx=0;entryDy=0;dashed=1;strokeWidth=2;align=center;verticalAlign=middle;fontFamily=Helvetica;fontSize=14;fontColor=default;fontStyle=1;labelBackgroundColor=default;endArrow=none;endFill=0;" edge="1" parent="hk0QQ_2dUpYuEPjXE7zu-1" source="hk0QQ_2dUpYuEPjXE7zu-48" target="hk0QQ_2dUpYuEPjXE7zu-42">
          <mxGeometry relative="1" as="geometry" />
        </mxCell>
        <mxCell id="hk0QQ_2dUpYuEPjXE7zu-48" value="Colonia" style="ellipse;whiteSpace=wrap;html=1;align=center;verticalAlign=middle;fontFamily=Helvetica;fontSize=14;fontStyle=1;strokeWidth=2;" vertex="1" parent="hk0QQ_2dUpYuEPjXE7zu-1">
          <mxGeometry x="-875" y="380" width="80" height="50" as="geometry" />
        </mxCell>
        <mxCell id="hk0QQ_2dUpYuEPjXE7zu-49" style="edgeStyle=none;shape=wire;rounded=0;orthogonalLoop=1;jettySize=auto;html=1;exitX=1;exitY=0.5;exitDx=0;exitDy=0;entryX=0;entryY=1;entryDx=0;entryDy=0;dashed=1;strokeWidth=2;align=center;verticalAlign=middle;fontFamily=Helvetica;fontSize=14;fontColor=default;fontStyle=1;labelBackgroundColor=default;endArrow=none;endFill=0;" edge="1" parent="hk0QQ_2dUpYuEPjXE7zu-1" source="hk0QQ_2dUpYuEPjXE7zu-50" target="hk0QQ_2dUpYuEPjXE7zu-42">
          <mxGeometry relative="1" as="geometry" />
        </mxCell>
        <mxCell id="hk0QQ_2dUpYuEPjXE7zu-50" value="CodigoPostal" style="ellipse;whiteSpace=wrap;html=1;align=center;verticalAlign=middle;fontFamily=Helvetica;fontSize=14;fontStyle=1;strokeWidth=2;" vertex="1" parent="hk0QQ_2dUpYuEPjXE7zu-1">
          <mxGeometry x="-925" y="445" width="130" height="50" as="geometry" />
        </mxCell>
        <mxCell id="hk0QQ_2dUpYuEPjXE7zu-51" value="NumInterior" style="ellipse;whiteSpace=wrap;html=1;align=center;verticalAlign=middle;fontFamily=Helvetica;fontSize=14;fontStyle=1;strokeWidth=2;" vertex="1" parent="hk0QQ_2dUpYuEPjXE7zu-1">
          <mxGeometry x="-840" y="500" width="130" height="50" as="geometry" />
        </mxCell>
        <mxCell id="hk0QQ_2dUpYuEPjXE7zu-52" style="edgeStyle=none;shape=wire;rounded=0;orthogonalLoop=1;jettySize=auto;html=1;exitX=0.5;exitY=0;exitDx=0;exitDy=0;dashed=1;strokeWidth=2;align=center;verticalAlign=middle;fontFamily=Helvetica;fontSize=14;fontColor=default;fontStyle=1;labelBackgroundColor=default;endArrow=none;endFill=0;" edge="1" parent="hk0QQ_2dUpYuEPjXE7zu-1" source="hk0QQ_2dUpYuEPjXE7zu-53">
          <mxGeometry relative="1" as="geometry">
            <mxPoint x="-600.1764705882351" y="450" as="targetPoint" />
          </mxGeometry>
        </mxCell>
        <mxCell id="hk0QQ_2dUpYuEPjXE7zu-53" value="NumExterior" style="ellipse;whiteSpace=wrap;html=1;align=center;verticalAlign=middle;fontFamily=Helvetica;fontSize=14;fontStyle=1;strokeWidth=2;" vertex="1" parent="hk0QQ_2dUpYuEPjXE7zu-1">
          <mxGeometry x="-665" y="490" width="130" height="50" as="geometry" />
        </mxCell>
        <mxCell id="hk0QQ_2dUpYuEPjXE7zu-54" style="edgeStyle=none;shape=wire;rounded=0;orthogonalLoop=1;jettySize=auto;html=1;exitX=0.5;exitY=0;exitDx=0;exitDy=0;entryX=0.322;entryY=0.999;entryDx=0;entryDy=0;entryPerimeter=0;dashed=1;strokeWidth=2;align=center;verticalAlign=middle;fontFamily=Helvetica;fontSize=14;fontColor=default;fontStyle=1;labelBackgroundColor=default;endArrow=none;endFill=0;" edge="1" parent="hk0QQ_2dUpYuEPjXE7zu-1" source="hk0QQ_2dUpYuEPjXE7zu-51" target="hk0QQ_2dUpYuEPjXE7zu-42">
          <mxGeometry relative="1" as="geometry" />
        </mxCell>
        <mxCell id="hk0QQ_2dUpYuEPjXE7zu-55" style="edgeStyle=none;shape=wire;rounded=0;orthogonalLoop=1;jettySize=auto;html=1;exitX=0.137;exitY=0.294;exitDx=0;exitDy=0;entryX=0.5;entryY=0;entryDx=0;entryDy=0;dashed=1;strokeWidth=2;align=center;verticalAlign=middle;fontFamily=Helvetica;fontSize=14;fontColor=default;fontStyle=1;labelBackgroundColor=default;endArrow=none;endFill=0;exitPerimeter=0;" edge="1" parent="hk0QQ_2dUpYuEPjXE7zu-1" source="hk0QQ_2dUpYuEPjXE7zu-100" target="hk0QQ_2dUpYuEPjXE7zu-57">
          <mxGeometry relative="1" as="geometry">
            <mxPoint x="-470" y="630" as="sourcePoint" />
          </mxGeometry>
        </mxCell>
        <mxCell id="hk0QQ_2dUpYuEPjXE7zu-56" style="edgeStyle=none;shape=wire;rounded=0;orthogonalLoop=1;jettySize=auto;html=1;entryX=0.5;entryY=0;entryDx=0;entryDy=0;dashed=1;strokeWidth=2;align=center;verticalAlign=middle;fontFamily=Helvetica;fontSize=14;fontColor=default;fontStyle=1;labelBackgroundColor=default;endArrow=none;endFill=0;exitX=0.75;exitY=1;exitDx=0;exitDy=0;" edge="1" parent="hk0QQ_2dUpYuEPjXE7zu-1" source="hk0QQ_2dUpYuEPjXE7zu-57" target="hk0QQ_2dUpYuEPjXE7zu-85">
          <mxGeometry relative="1" as="geometry">
            <mxPoint x="-740" y="760" as="sourcePoint" />
          </mxGeometry>
        </mxCell>
        <mxCell id="hk0QQ_2dUpYuEPjXE7zu-57" value="&lt;font&gt;Vendedor&lt;/font&gt;" style="whiteSpace=wrap;html=1;align=center;fontSize=14;fontStyle=1;strokeWidth=2;" vertex="1" parent="hk0QQ_2dUpYuEPjXE7zu-1">
          <mxGeometry x="-855" y="680" width="90" height="40" as="geometry" />
        </mxCell>
        <mxCell id="hk0QQ_2dUpYuEPjXE7zu-58" style="edgeStyle=none;shape=wire;rounded=0;orthogonalLoop=1;jettySize=auto;html=1;exitX=0.25;exitY=1;exitDx=0;exitDy=0;entryX=0.5;entryY=0;entryDx=0;entryDy=0;dashed=1;strokeWidth=2;align=center;verticalAlign=middle;fontFamily=Helvetica;fontSize=14;fontColor=default;fontStyle=1;labelBackgroundColor=default;endArrow=none;endFill=0;" edge="1" parent="hk0QQ_2dUpYuEPjXE7zu-1" source="hk0QQ_2dUpYuEPjXE7zu-61" target="hk0QQ_2dUpYuEPjXE7zu-86">
          <mxGeometry relative="1" as="geometry" />
        </mxCell>
        <mxCell id="hk0QQ_2dUpYuEPjXE7zu-59" style="edgeStyle=none;shape=wire;rounded=0;orthogonalLoop=1;jettySize=auto;html=1;exitX=0.5;exitY=1;exitDx=0;exitDy=0;entryX=0.5;entryY=0;entryDx=0;entryDy=0;dashed=1;strokeWidth=2;align=center;verticalAlign=middle;fontFamily=Helvetica;fontSize=14;fontColor=default;fontStyle=1;labelBackgroundColor=default;endArrow=none;endFill=0;" edge="1" parent="hk0QQ_2dUpYuEPjXE7zu-1" source="hk0QQ_2dUpYuEPjXE7zu-61" target="hk0QQ_2dUpYuEPjXE7zu-73">
          <mxGeometry relative="1" as="geometry" />
        </mxCell>
        <mxCell id="hk0QQ_2dUpYuEPjXE7zu-60" style="edgeStyle=none;shape=connector;rounded=0;orthogonalLoop=1;jettySize=auto;html=1;exitX=0.75;exitY=1;exitDx=0;exitDy=0;entryX=0.5;entryY=0;entryDx=0;entryDy=0;strokeWidth=2;align=center;verticalAlign=middle;fontFamily=Helvetica;fontSize=14;fontColor=default;labelBackgroundColor=default;endArrow=none;endFill=0;" edge="1" parent="hk0QQ_2dUpYuEPjXE7zu-1" source="hk0QQ_2dUpYuEPjXE7zu-61" target="hk0QQ_2dUpYuEPjXE7zu-121">
          <mxGeometry relative="1" as="geometry" />
        </mxCell>
        <mxCell id="hk0QQ_2dUpYuEPjXE7zu-61" value="&lt;font&gt;Cuidador&lt;/font&gt;" style="whiteSpace=wrap;html=1;align=center;fontSize=14;fontStyle=1;strokeWidth=2;" vertex="1" parent="hk0QQ_2dUpYuEPjXE7zu-1">
          <mxGeometry x="-585" y="720" width="90" height="40" as="geometry" />
        </mxCell>
        <mxCell id="hk0QQ_2dUpYuEPjXE7zu-62" style="edgeStyle=none;shape=wire;rounded=0;orthogonalLoop=1;jettySize=auto;html=1;exitX=0.5;exitY=0;exitDx=0;exitDy=0;dashed=1;strokeWidth=2;align=center;verticalAlign=middle;fontFamily=Helvetica;fontSize=14;fontColor=default;fontStyle=1;labelBackgroundColor=default;endArrow=none;endFill=0;" edge="1" parent="hk0QQ_2dUpYuEPjXE7zu-1" source="hk0QQ_2dUpYuEPjXE7zu-100">
          <mxGeometry relative="1" as="geometry">
            <mxPoint x="-433.6363636363635" y="635.4545454545453" as="targetPoint" />
          </mxGeometry>
        </mxCell>
        <mxCell id="hk0QQ_2dUpYuEPjXE7zu-63" style="edgeStyle=none;shape=wire;rounded=0;orthogonalLoop=1;jettySize=auto;html=1;exitX=0.25;exitY=1;exitDx=0;exitDy=0;entryX=0.5;entryY=0;entryDx=0;entryDy=0;dashed=1;strokeWidth=2;align=center;verticalAlign=middle;fontFamily=Helvetica;fontSize=14;fontColor=default;fontStyle=1;labelBackgroundColor=default;endArrow=none;endFill=0;" edge="1" parent="hk0QQ_2dUpYuEPjXE7zu-1" source="hk0QQ_2dUpYuEPjXE7zu-66" target="hk0QQ_2dUpYuEPjXE7zu-87">
          <mxGeometry relative="1" as="geometry" />
        </mxCell>
        <mxCell id="hk0QQ_2dUpYuEPjXE7zu-64" style="edgeStyle=none;shape=wire;rounded=0;orthogonalLoop=1;jettySize=auto;html=1;exitX=0.5;exitY=1;exitDx=0;exitDy=0;entryX=0.5;entryY=0;entryDx=0;entryDy=0;dashed=1;strokeWidth=2;align=center;verticalAlign=middle;fontFamily=Helvetica;fontSize=14;fontColor=default;fontStyle=1;labelBackgroundColor=default;endArrow=none;endFill=0;" edge="1" parent="hk0QQ_2dUpYuEPjXE7zu-1" source="hk0QQ_2dUpYuEPjXE7zu-66" target="hk0QQ_2dUpYuEPjXE7zu-74">
          <mxGeometry relative="1" as="geometry" />
        </mxCell>
        <mxCell id="hk0QQ_2dUpYuEPjXE7zu-65" style="edgeStyle=none;shape=connector;rounded=0;orthogonalLoop=1;jettySize=auto;html=1;exitX=0.75;exitY=1;exitDx=0;exitDy=0;entryX=0.5;entryY=0;entryDx=0;entryDy=0;strokeWidth=2;align=center;verticalAlign=middle;fontFamily=Helvetica;fontSize=14;fontColor=default;labelBackgroundColor=default;endArrow=none;endFill=0;" edge="1" parent="hk0QQ_2dUpYuEPjXE7zu-1" source="hk0QQ_2dUpYuEPjXE7zu-66" target="hk0QQ_2dUpYuEPjXE7zu-122">
          <mxGeometry relative="1" as="geometry" />
        </mxCell>
        <mxCell id="hk0QQ_2dUpYuEPjXE7zu-66" value="&lt;font&gt;Limpiador&lt;/font&gt;" style="whiteSpace=wrap;html=1;align=center;fontSize=14;fontStyle=1;strokeWidth=2;" vertex="1" parent="hk0QQ_2dUpYuEPjXE7zu-1">
          <mxGeometry x="-350" y="727.5" width="90" height="40" as="geometry" />
        </mxCell>
        <mxCell id="hk0QQ_2dUpYuEPjXE7zu-67" style="edgeStyle=none;rounded=0;orthogonalLoop=1;jettySize=auto;html=1;exitX=1;exitY=0.5;exitDx=0;exitDy=0;strokeWidth=2;align=center;verticalAlign=middle;fontFamily=Helvetica;fontSize=14;fontColor=default;labelBackgroundColor=default;endArrow=none;endFill=0;startArrow=none;startFill=0;entryX=0;entryY=1;entryDx=0;entryDy=0;" edge="1" parent="hk0QQ_2dUpYuEPjXE7zu-1" source="hk0QQ_2dUpYuEPjXE7zu-68" target="EvbnB_FFHpa_hRASt3lz-8">
          <mxGeometry relative="1" as="geometry">
            <mxPoint x="130" y="680" as="targetPoint" />
          </mxGeometry>
        </mxCell>
        <mxCell id="hk0QQ_2dUpYuEPjXE7zu-68" value="&lt;font&gt;EncargadoRegistro&lt;/font&gt;" style="whiteSpace=wrap;html=1;align=center;fontSize=14;fontStyle=1;strokeWidth=2;" vertex="1" parent="hk0QQ_2dUpYuEPjXE7zu-1">
          <mxGeometry x="-90" y="720" width="150" height="40" as="geometry" />
        </mxCell>
        <mxCell id="hk0QQ_2dUpYuEPjXE7zu-69" style="edgeStyle=none;shape=wire;rounded=0;orthogonalLoop=1;jettySize=auto;html=1;exitX=0.5;exitY=0;exitDx=0;exitDy=0;entryX=0.788;entryY=0.671;entryDx=0;entryDy=0;entryPerimeter=0;dashed=1;strokeWidth=2;align=center;verticalAlign=middle;fontFamily=Helvetica;fontSize=14;fontColor=default;fontStyle=1;labelBackgroundColor=default;endArrow=none;endFill=0;" edge="1" parent="hk0QQ_2dUpYuEPjXE7zu-1" source="hk0QQ_2dUpYuEPjXE7zu-61">
          <mxGeometry relative="1" as="geometry">
            <mxPoint x="-463.67999999999984" y="647.28" as="targetPoint" />
          </mxGeometry>
        </mxCell>
        <mxCell id="hk0QQ_2dUpYuEPjXE7zu-70" style="edgeStyle=none;shape=wire;rounded=0;orthogonalLoop=1;jettySize=auto;html=1;exitX=0.5;exitY=0;exitDx=0;exitDy=0;entryX=0.786;entryY=0.489;entryDx=0;entryDy=0;entryPerimeter=0;dashed=1;strokeWidth=2;align=center;verticalAlign=middle;fontFamily=Helvetica;fontSize=14;fontColor=default;fontStyle=1;labelBackgroundColor=default;endArrow=none;endFill=0;" edge="1" parent="hk0QQ_2dUpYuEPjXE7zu-1" source="hk0QQ_2dUpYuEPjXE7zu-68" target="hk0QQ_2dUpYuEPjXE7zu-100">
          <mxGeometry relative="1" as="geometry">
            <mxPoint x="-436.6399999999999" y="648.4799999999998" as="targetPoint" />
          </mxGeometry>
        </mxCell>
        <mxCell id="hk0QQ_2dUpYuEPjXE7zu-71" style="edgeStyle=none;shape=wire;rounded=0;orthogonalLoop=1;jettySize=auto;html=1;entryX=0;entryY=0.5;entryDx=0;entryDy=0;dashed=1;strokeWidth=2;align=center;verticalAlign=middle;fontFamily=Helvetica;fontSize=14;fontColor=default;fontStyle=1;labelBackgroundColor=default;endArrow=none;endFill=0;" edge="1" parent="hk0QQ_2dUpYuEPjXE7zu-1" source="hk0QQ_2dUpYuEPjXE7zu-72" target="hk0QQ_2dUpYuEPjXE7zu-7">
          <mxGeometry relative="1" as="geometry" />
        </mxCell>
        <mxCell id="hk0QQ_2dUpYuEPjXE7zu-72" value="&lt;b&gt;IdPersona&lt;/b&gt;" style="ellipse;whiteSpace=wrap;html=1;align=center;fontStyle=4;verticalAlign=middle;fontFamily=Helvetica;fontSize=14;labelBackgroundColor=default;strokeWidth=2;" vertex="1" parent="hk0QQ_2dUpYuEPjXE7zu-1">
          <mxGeometry x="-115" y="-10" width="100" height="40" as="geometry" />
        </mxCell>
        <mxCell id="hk0QQ_2dUpYuEPjXE7zu-73" value="Horario" style="ellipse;whiteSpace=wrap;html=1;align=center;verticalAlign=middle;fontFamily=Helvetica;fontSize=14;fontStyle=1;labelBackgroundColor=default;strokeWidth=2;" vertex="1" parent="hk0QQ_2dUpYuEPjXE7zu-1">
          <mxGeometry x="-615" y="860" width="100" height="40" as="geometry" />
        </mxCell>
        <mxCell id="hk0QQ_2dUpYuEPjXE7zu-74" value="Horario" style="ellipse;whiteSpace=wrap;html=1;align=center;verticalAlign=middle;fontFamily=Helvetica;fontSize=14;fontStyle=1;labelBackgroundColor=default;strokeWidth=2;" vertex="1" parent="hk0QQ_2dUpYuEPjXE7zu-1">
          <mxGeometry x="-345" y="865" width="100" height="40" as="geometry" />
        </mxCell>
        <mxCell id="hk0QQ_2dUpYuEPjXE7zu-75" value="Correos" style="ellipse;shape=doubleEllipse;margin=3;whiteSpace=wrap;html=1;align=center;verticalAlign=middle;fontFamily=Helvetica;fontSize=14;fontStyle=1;strokeWidth=2;" vertex="1" parent="hk0QQ_2dUpYuEPjXE7zu-1">
          <mxGeometry x="755" y="291" width="100" height="40" as="geometry" />
        </mxCell>
        <mxCell id="hk0QQ_2dUpYuEPjXE7zu-76" value="Correos" style="ellipse;shape=doubleEllipse;margin=3;whiteSpace=wrap;html=1;align=center;verticalAlign=middle;fontFamily=Helvetica;fontSize=14;fontStyle=1;strokeWidth=2;" vertex="1" parent="hk0QQ_2dUpYuEPjXE7zu-1">
          <mxGeometry x="-350" y="440" width="100" height="40" as="geometry" />
        </mxCell>
        <mxCell id="hk0QQ_2dUpYuEPjXE7zu-77" value="TelÃ©fonos" style="ellipse;shape=doubleEllipse;margin=3;whiteSpace=wrap;html=1;align=center;verticalAlign=middle;fontFamily=Helvetica;fontSize=14;fontStyle=1;strokeWidth=2;" vertex="1" parent="hk0QQ_2dUpYuEPjXE7zu-1">
          <mxGeometry x="-400" y="510" width="100" height="40" as="geometry" />
        </mxCell>
        <mxCell id="hk0QQ_2dUpYuEPjXE7zu-78" style="edgeStyle=none;shape=wire;rounded=0;orthogonalLoop=1;jettySize=auto;html=1;exitX=0.25;exitY=1;exitDx=0;exitDy=0;entryX=0.5;entryY=0;entryDx=0;entryDy=0;dashed=1;strokeWidth=2;align=center;verticalAlign=middle;fontFamily=Helvetica;fontSize=14;fontColor=default;fontStyle=1;labelBackgroundColor=default;endArrow=none;endFill=0;" edge="1" parent="hk0QQ_2dUpYuEPjXE7zu-1" source="hk0QQ_2dUpYuEPjXE7zu-81" target="hk0QQ_2dUpYuEPjXE7zu-83">
          <mxGeometry relative="1" as="geometry" />
        </mxCell>
        <mxCell id="hk0QQ_2dUpYuEPjXE7zu-79" style="edgeStyle=none;shape=wire;rounded=0;orthogonalLoop=1;jettySize=auto;html=1;exitX=0.75;exitY=1;exitDx=0;exitDy=0;entryX=0.5;entryY=0;entryDx=0;entryDy=0;dashed=1;strokeWidth=2;align=center;verticalAlign=middle;fontFamily=Helvetica;fontSize=14;fontColor=default;fontStyle=1;labelBackgroundColor=default;endArrow=none;endFill=0;" edge="1" parent="hk0QQ_2dUpYuEPjXE7zu-1" source="hk0QQ_2dUpYuEPjXE7zu-81" target="hk0QQ_2dUpYuEPjXE7zu-84">
          <mxGeometry relative="1" as="geometry" />
        </mxCell>
        <mxCell id="hk0QQ_2dUpYuEPjXE7zu-80" style="rounded=0;orthogonalLoop=1;jettySize=auto;html=1;exitX=1;exitY=0;exitDx=0;exitDy=0;entryX=0;entryY=0.5;entryDx=0;entryDy=0;endArrow=none;endFill=0;strokeWidth=2;shape=link;" edge="1" parent="hk0QQ_2dUpYuEPjXE7zu-1" source="hk0QQ_2dUpYuEPjXE7zu-81" target="hk0QQ_2dUpYuEPjXE7zu-224">
          <mxGeometry relative="1" as="geometry" />
        </mxCell>
        <mxCell id="hk0QQ_2dUpYuEPjXE7zu-81" value="&lt;font&gt;Espectador&lt;/font&gt;" style="whiteSpace=wrap;html=1;align=center;fontSize=14;fontStyle=1;strokeWidth=2;" vertex="1" parent="hk0QQ_2dUpYuEPjXE7zu-1">
          <mxGeometry x="102.5" y="190" width="140" height="40" as="geometry" />
        </mxCell>
        <mxCell id="hk0QQ_2dUpYuEPjXE7zu-82" value="TelÃ©fonos" style="ellipse;shape=doubleEllipse;margin=3;whiteSpace=wrap;html=1;align=center;verticalAlign=middle;fontFamily=Helvetica;fontSize=14;fontStyle=1;strokeWidth=2;" vertex="1" parent="hk0QQ_2dUpYuEPjXE7zu-1">
          <mxGeometry x="655" y="465" width="100" height="40" as="geometry" />
        </mxCell>
        <mxCell id="hk0QQ_2dUpYuEPjXE7zu-83" value="HoraIngreso" style="ellipse;whiteSpace=wrap;html=1;align=center;verticalAlign=middle;fontFamily=Helvetica;fontSize=14;fontStyle=1;labelBackgroundColor=default;strokeWidth=2;" vertex="1" parent="hk0QQ_2dUpYuEPjXE7zu-1">
          <mxGeometry x="-80" y="280" width="115" height="40" as="geometry" />
        </mxCell>
        <mxCell id="hk0QQ_2dUpYuEPjXE7zu-84" value="HoraSalida" style="ellipse;whiteSpace=wrap;html=1;align=center;verticalAlign=middle;fontFamily=Helvetica;fontSize=14;fontStyle=1;labelBackgroundColor=default;strokeWidth=2;" vertex="1" parent="hk0QQ_2dUpYuEPjXE7zu-1">
          <mxGeometry x="35" y="310" width="115" height="40" as="geometry" />
        </mxCell>
        <mxCell id="hk0QQ_2dUpYuEPjXE7zu-85" value="Ubicacion" style="ellipse;whiteSpace=wrap;html=1;align=center;verticalAlign=middle;fontFamily=Helvetica;fontSize=14;fontStyle=1;strokeWidth=2;" vertex="1" parent="hk0QQ_2dUpYuEPjXE7zu-1">
          <mxGeometry x="-845" y="840" width="100" height="50" as="geometry" />
        </mxCell>
        <mxCell id="hk0QQ_2dUpYuEPjXE7zu-86" value="Ubicacion" style="ellipse;whiteSpace=wrap;html=1;align=center;verticalAlign=middle;fontFamily=Helvetica;fontSize=14;fontStyle=1;strokeWidth=2;" vertex="1" parent="hk0QQ_2dUpYuEPjXE7zu-1">
          <mxGeometry x="-725" y="845" width="100" height="50" as="geometry" />
        </mxCell>
        <mxCell id="hk0QQ_2dUpYuEPjXE7zu-87" value="Ubicacion" style="ellipse;whiteSpace=wrap;html=1;align=center;verticalAlign=middle;fontFamily=Helvetica;fontSize=14;fontStyle=1;strokeWidth=2;" vertex="1" parent="hk0QQ_2dUpYuEPjXE7zu-1">
          <mxGeometry x="-435" y="805" width="100" height="50" as="geometry" />
        </mxCell>
        <mxCell id="hk0QQ_2dUpYuEPjXE7zu-88" style="edgeStyle=none;shape=link;rounded=0;orthogonalLoop=1;jettySize=auto;html=1;exitX=0.5;exitY=1;exitDx=0;exitDy=0;entryX=0;entryY=0.5;entryDx=0;entryDy=0;strokeWidth=2;align=center;verticalAlign=middle;fontFamily=Helvetica;fontSize=14;fontColor=default;fontStyle=1;labelBackgroundColor=default;endArrow=none;endFill=0;" edge="1" parent="hk0QQ_2dUpYuEPjXE7zu-1" source="hk0QQ_2dUpYuEPjXE7zu-185">
          <mxGeometry relative="1" as="geometry">
            <mxPoint x="1573" y="150" as="targetPoint" />
            <mxPoint x="1573" y="80" as="sourcePoint" />
          </mxGeometry>
        </mxCell>
        <mxCell id="hk0QQ_2dUpYuEPjXE7zu-89" style="edgeStyle=none;shape=wire;rounded=0;orthogonalLoop=1;jettySize=auto;html=1;exitX=1;exitY=0.5;exitDx=0;exitDy=0;entryX=0;entryY=0.5;entryDx=0;entryDy=0;dashed=1;strokeWidth=2;align=center;verticalAlign=middle;fontFamily=Helvetica;fontSize=14;fontColor=default;fontStyle=1;labelBackgroundColor=default;endArrow=none;endFill=0;" edge="1" parent="hk0QQ_2dUpYuEPjXE7zu-1">
          <mxGeometry relative="1" as="geometry">
            <mxPoint x="1623" y="60" as="sourcePoint" />
            <mxPoint x="1703" y="60" as="targetPoint" />
          </mxGeometry>
        </mxCell>
        <mxCell id="hk0QQ_2dUpYuEPjXE7zu-90" style="edgeStyle=none;shape=connector;rounded=0;orthogonalLoop=1;jettySize=auto;html=1;exitX=1;exitY=1;exitDx=0;exitDy=0;strokeWidth=2;align=center;verticalAlign=middle;fontFamily=Helvetica;fontSize=14;fontColor=default;labelBackgroundColor=default;endArrow=none;endFill=0;entryX=0.5;entryY=0;entryDx=0;entryDy=0;startArrow=classic;startFill=1;" edge="1" parent="hk0QQ_2dUpYuEPjXE7zu-1" source="hk0QQ_2dUpYuEPjXE7zu-91" target="hk0QQ_2dUpYuEPjXE7zu-149">
          <mxGeometry relative="1" as="geometry">
            <mxPoint x="1335.0000000000005" y="980" as="targetPoint" />
          </mxGeometry>
        </mxCell>
        <mxCell id="hk0QQ_2dUpYuEPjXE7zu-91" value="TorneoPeleas" style="whiteSpace=wrap;html=1;align=center;strokeWidth=2;verticalAlign=middle;fontFamily=Helvetica;fontSize=14;fontStyle=1;labelBackgroundColor=default;" vertex="1" parent="hk0QQ_2dUpYuEPjXE7zu-1">
          <mxGeometry x="1206" y="270" width="140" height="40" as="geometry" />
        </mxCell>
        <mxCell id="hk0QQ_2dUpYuEPjXE7zu-92" style="edgeStyle=none;shape=connector;rounded=0;orthogonalLoop=1;jettySize=auto;html=1;exitX=0.5;exitY=1;exitDx=0;exitDy=0;entryX=0.5;entryY=0;entryDx=0;entryDy=0;strokeWidth=2;align=center;verticalAlign=middle;fontFamily=Helvetica;fontSize=14;fontColor=default;labelBackgroundColor=default;endArrow=none;endFill=0;startArrow=classic;startFill=1;" edge="1" parent="hk0QQ_2dUpYuEPjXE7zu-1" source="hk0QQ_2dUpYuEPjXE7zu-93" target="hk0QQ_2dUpYuEPjXE7zu-165">
          <mxGeometry relative="1" as="geometry" />
        </mxCell>
        <mxCell id="hk0QQ_2dUpYuEPjXE7zu-93" value="TorneoCapturaShinys" style="whiteSpace=wrap;html=1;align=center;strokeWidth=2;verticalAlign=middle;fontFamily=Helvetica;fontSize=14;fontStyle=1;labelBackgroundColor=default;" vertex="1" parent="hk0QQ_2dUpYuEPjXE7zu-1">
          <mxGeometry x="1765" y="275" width="190" height="40" as="geometry" />
        </mxCell>
        <mxCell id="hk0QQ_2dUpYuEPjXE7zu-94" value="&lt;b&gt;TorneoDistanciaRecorrida&lt;/b&gt;" style="whiteSpace=wrap;html=1;align=center;strokeWidth=2;verticalAlign=middle;fontFamily=Helvetica;fontSize=14;fontStyle=0;labelBackgroundColor=default;" vertex="1" parent="hk0QQ_2dUpYuEPjXE7zu-1">
          <mxGeometry x="1475.5" y="270" width="200" height="40" as="geometry" />
        </mxCell>
        <mxCell id="hk0QQ_2dUpYuEPjXE7zu-95" style="edgeStyle=none;shape=wire;rounded=0;orthogonalLoop=1;jettySize=auto;html=1;exitX=0.5;exitY=1;exitDx=0;exitDy=0;entryX=0.5;entryY=0;entryDx=0;entryDy=0;dashed=1;strokeWidth=2;align=center;verticalAlign=middle;fontFamily=Helvetica;fontSize=14;fontColor=default;fontStyle=1;labelBackgroundColor=default;endArrow=none;endFill=0;exitPerimeter=0;" edge="1" parent="hk0QQ_2dUpYuEPjXE7zu-1" source="hk0QQ_2dUpYuEPjXE7zu-102" target="hk0QQ_2dUpYuEPjXE7zu-94">
          <mxGeometry relative="1" as="geometry">
            <mxPoint x="1466" y="210" as="sourcePoint" />
          </mxGeometry>
        </mxCell>
        <mxCell id="hk0QQ_2dUpYuEPjXE7zu-96" style="edgeStyle=none;shape=wire;rounded=0;orthogonalLoop=1;jettySize=auto;html=1;exitX=0.182;exitY=0.425;exitDx=0;exitDy=0;entryX=0.5;entryY=0;entryDx=0;entryDy=0;dashed=1;strokeWidth=2;align=center;verticalAlign=middle;fontFamily=Helvetica;fontSize=14;fontColor=default;fontStyle=1;labelBackgroundColor=default;endArrow=none;endFill=0;exitPerimeter=0;" edge="1" parent="hk0QQ_2dUpYuEPjXE7zu-1" source="hk0QQ_2dUpYuEPjXE7zu-102" target="hk0QQ_2dUpYuEPjXE7zu-91">
          <mxGeometry relative="1" as="geometry">
            <mxPoint x="1446" y="180" as="sourcePoint" />
          </mxGeometry>
        </mxCell>
        <mxCell id="hk0QQ_2dUpYuEPjXE7zu-97" style="edgeStyle=none;shape=wire;rounded=0;orthogonalLoop=1;jettySize=auto;html=1;exitX=0.5;exitY=0;exitDx=0;exitDy=0;entryX=0.6;entryY=0;entryDx=0;entryDy=0;entryPerimeter=0;dashed=1;strokeWidth=2;align=center;verticalAlign=middle;fontFamily=Helvetica;fontSize=14;fontColor=default;fontStyle=1;labelBackgroundColor=default;endArrow=none;endFill=0;" edge="1" parent="hk0QQ_2dUpYuEPjXE7zu-1" source="hk0QQ_2dUpYuEPjXE7zu-102" target="hk0QQ_2dUpYuEPjXE7zu-93">
          <mxGeometry relative="1" as="geometry">
            <mxPoint x="1593" y="180" as="sourcePoint" />
          </mxGeometry>
        </mxCell>
        <mxCell id="hk0QQ_2dUpYuEPjXE7zu-98" value="" style="edgeStyle=none;shape=wire;rounded=0;orthogonalLoop=1;jettySize=auto;html=1;exitX=0.5;exitY=1;exitDx=0;exitDy=0;entryX=0.5;entryY=0;entryDx=0;entryDy=0;dashed=1;strokeWidth=2;align=center;verticalAlign=middle;fontFamily=Helvetica;fontSize=14;fontColor=default;fontStyle=1;labelBackgroundColor=default;endArrow=none;endFill=0;" edge="1" parent="hk0QQ_2dUpYuEPjXE7zu-1" target="hk0QQ_2dUpYuEPjXE7zu-100">
          <mxGeometry relative="1" as="geometry">
            <mxPoint x="-470" y="630" as="sourcePoint" />
            <mxPoint x="-695" y="720" as="targetPoint" />
          </mxGeometry>
        </mxCell>
        <mxCell id="hk0QQ_2dUpYuEPjXE7zu-99" value="" style="edgeStyle=none;shape=wire;rounded=0;orthogonalLoop=1;jettySize=auto;html=1;exitX=0.5;exitY=0;exitDx=0;exitDy=0;dashed=1;strokeWidth=2;align=center;verticalAlign=middle;fontFamily=Helvetica;fontSize=14;fontColor=default;fontStyle=1;labelBackgroundColor=default;endArrow=none;endFill=0;entryX=0.646;entryY=0.783;entryDx=0;entryDy=0;entryPerimeter=0;" edge="1" parent="hk0QQ_2dUpYuEPjXE7zu-1" source="hk0QQ_2dUpYuEPjXE7zu-66" target="hk0QQ_2dUpYuEPjXE7zu-100">
          <mxGeometry relative="1" as="geometry">
            <mxPoint x="-180" y="720" as="sourcePoint" />
            <mxPoint x="-433.6363636363635" y="635.4545454545453" as="targetPoint" />
          </mxGeometry>
        </mxCell>
        <mxCell id="hk0QQ_2dUpYuEPjXE7zu-100" value="d" style="strokeWidth=2;html=1;shape=mxgraph.flowchart.merge_or_storage;whiteSpace=wrap;fontSize=14;" vertex="1" parent="hk0QQ_2dUpYuEPjXE7zu-1">
          <mxGeometry x="-500" y="600" width="95" height="60" as="geometry" />
        </mxCell>
        <mxCell id="hk0QQ_2dUpYuEPjXE7zu-101" value="" style="edgeStyle=none;shape=wire;rounded=0;orthogonalLoop=1;jettySize=auto;html=1;exitX=0.5;exitY=0;exitDx=0;exitDy=0;entryX=0.6;entryY=0;entryDx=0;entryDy=0;entryPerimeter=0;dashed=1;strokeWidth=2;align=center;verticalAlign=middle;fontFamily=Helvetica;fontSize=14;fontColor=default;fontStyle=1;labelBackgroundColor=default;endArrow=none;endFill=0;" edge="1" parent="hk0QQ_2dUpYuEPjXE7zu-1" target="hk0QQ_2dUpYuEPjXE7zu-102">
          <mxGeometry relative="1" as="geometry">
            <mxPoint x="1593" y="180" as="sourcePoint" />
            <mxPoint x="1867" y="270" as="targetPoint" />
          </mxGeometry>
        </mxCell>
        <mxCell id="hk0QQ_2dUpYuEPjXE7zu-102" value="d" style="strokeWidth=2;html=1;shape=mxgraph.flowchart.merge_or_storage;whiteSpace=wrap;fontSize=14;" vertex="1" parent="hk0QQ_2dUpYuEPjXE7zu-1">
          <mxGeometry x="1528" y="150" width="95" height="60" as="geometry" />
        </mxCell>
        <mxCell id="hk0QQ_2dUpYuEPjXE7zu-103" style="shape=connector;rounded=0;orthogonalLoop=1;jettySize=auto;html=1;exitX=0;exitY=0.5;exitDx=0;exitDy=0;entryX=0;entryY=0.5;entryDx=0;entryDy=0;align=center;verticalAlign=middle;fontFamily=Helvetica;fontSize=14;fontColor=default;labelBackgroundColor=default;endArrow=none;endFill=0;strokeWidth=2;" edge="1" parent="hk0QQ_2dUpYuEPjXE7zu-1" target="hk0QQ_2dUpYuEPjXE7zu-111">
          <mxGeometry relative="1" as="geometry">
            <mxPoint x="570" y="760" as="sourcePoint" />
          </mxGeometry>
        </mxCell>
        <mxCell id="hk0QQ_2dUpYuEPjXE7zu-104" style="shape=connector;rounded=0;orthogonalLoop=1;jettySize=auto;html=1;exitX=0.25;exitY=1;exitDx=0;exitDy=0;entryX=0.5;entryY=0;entryDx=0;entryDy=0;align=center;verticalAlign=middle;fontFamily=Helvetica;fontSize=14;fontColor=default;labelBackgroundColor=default;endArrow=none;endFill=0;strokeWidth=2;" edge="1" parent="hk0QQ_2dUpYuEPjXE7zu-1" target="hk0QQ_2dUpYuEPjXE7zu-138">
          <mxGeometry relative="1" as="geometry">
            <mxPoint x="744.9999999999995" y="805" as="targetPoint" />
            <mxPoint x="602.5" y="780" as="sourcePoint" />
          </mxGeometry>
        </mxCell>
        <mxCell id="hk0QQ_2dUpYuEPjXE7zu-106" style="edgeStyle=none;shape=connector;rounded=0;orthogonalLoop=1;jettySize=auto;html=1;exitX=0.75;exitY=1;exitDx=0;exitDy=0;strokeWidth=2;align=center;verticalAlign=middle;fontFamily=Helvetica;fontSize=14;fontColor=default;labelBackgroundColor=default;endArrow=none;endFill=0;entryX=0;entryY=0.5;entryDx=0;entryDy=0;startArrow=classic;startFill=1;" edge="1" parent="hk0QQ_2dUpYuEPjXE7zu-1" target="hk0QQ_2dUpYuEPjXE7zu-160">
          <mxGeometry relative="1" as="geometry">
            <mxPoint x="905" y="1090" as="targetPoint" />
            <Array as="points">
              <mxPoint x="680" y="1160" />
            </Array>
            <mxPoint x="667.5" y="780" as="sourcePoint" />
          </mxGeometry>
        </mxCell>
        <mxCell id="hk0QQ_2dUpYuEPjXE7zu-107" style="edgeStyle=none;shape=connector;rounded=0;orthogonalLoop=1;jettySize=auto;html=1;exitX=0.5;exitY=1;exitDx=0;exitDy=0;entryX=0;entryY=0.5;entryDx=0;entryDy=0;strokeWidth=2;align=center;verticalAlign=middle;fontFamily=Helvetica;fontSize=14;fontColor=default;labelBackgroundColor=default;endArrow=none;endFill=0;startArrow=classic;startFill=1;" edge="1" parent="hk0QQ_2dUpYuEPjXE7zu-1" target="hk0QQ_2dUpYuEPjXE7zu-172">
          <mxGeometry relative="1" as="geometry">
            <Array as="points">
              <mxPoint x="650" y="1520" />
            </Array>
            <mxPoint x="635" y="780" as="sourcePoint" />
          </mxGeometry>
        </mxCell>
        <mxCell id="hk0QQ_2dUpYuEPjXE7zu-109" style="shape=link;rounded=0;orthogonalLoop=1;jettySize=auto;html=1;exitX=0.5;exitY=1;exitDx=0;exitDy=0;entryX=0.5;entryY=0;entryDx=0;entryDy=0;align=center;verticalAlign=middle;fontFamily=Helvetica;fontSize=14;fontColor=default;labelBackgroundColor=default;endArrow=none;endFill=0;strokeWidth=2;" edge="1" parent="hk0QQ_2dUpYuEPjXE7zu-1">
          <mxGeometry relative="1" as="geometry">
            <mxPoint x="615" y="680" as="sourcePoint" />
            <mxPoint x="635" y="740" as="targetPoint" />
          </mxGeometry>
        </mxCell>
        <mxCell id="hk0QQ_2dUpYuEPjXE7zu-111" value="&lt;u&gt;CÃ³digo de entrenador&lt;/u&gt;" style="ellipse;whiteSpace=wrap;html=1;strokeWidth=2;fontSize=14;" vertex="1" parent="hk0QQ_2dUpYuEPjXE7zu-1">
          <mxGeometry x="365" y="710" width="100" height="50" as="geometry" />
        </mxCell>
        <mxCell id="hk0QQ_2dUpYuEPjXE7zu-112" style="edgeStyle=none;shape=connector;rounded=0;orthogonalLoop=1;jettySize=auto;html=1;exitX=1;exitY=0.5;exitDx=0;exitDy=0;entryX=0;entryY=0.5;entryDx=0;entryDy=0;strokeWidth=2;align=center;verticalAlign=middle;fontFamily=Helvetica;fontSize=14;fontColor=default;labelBackgroundColor=default;endArrow=none;endFill=0;" edge="1" parent="hk0QQ_2dUpYuEPjXE7zu-1" source="hk0QQ_2dUpYuEPjXE7zu-113">
          <mxGeometry relative="1" as="geometry">
            <mxPoint x="570" y="760" as="targetPoint" />
          </mxGeometry>
        </mxCell>
        <mxCell id="hk0QQ_2dUpYuEPjXE7zu-113" value="Equipo" style="ellipse;whiteSpace=wrap;html=1;align=center;fontFamily=Helvetica;fontSize=14;labelBackgroundColor=default;strokeWidth=2;" vertex="1" parent="hk0QQ_2dUpYuEPjXE7zu-1">
          <mxGeometry x="395" y="670" width="100" height="40" as="geometry" />
        </mxCell>
        <mxCell id="hk0QQ_2dUpYuEPjXE7zu-114" style="shape=connector;rounded=0;orthogonalLoop=1;jettySize=auto;html=1;exitX=0.5;exitY=0;exitDx=0;exitDy=0;align=center;verticalAlign=middle;fontFamily=Helvetica;fontSize=14;fontColor=default;labelBackgroundColor=default;endArrow=none;endFill=0;strokeWidth=2;entryX=0;entryY=0.5;entryDx=0;entryDy=0;" edge="1" parent="hk0QQ_2dUpYuEPjXE7zu-1" source="hk0QQ_2dUpYuEPjXE7zu-115">
          <mxGeometry relative="1" as="geometry">
            <mxPoint x="570" y="760" as="targetPoint" />
          </mxGeometry>
        </mxCell>
        <mxCell id="hk0QQ_2dUpYuEPjXE7zu-115" value="Nivel" style="ellipse;whiteSpace=wrap;html=1;align=center;fontFamily=Helvetica;fontSize=14;labelBackgroundColor=default;strokeWidth=2;" vertex="1" parent="hk0QQ_2dUpYuEPjXE7zu-1">
          <mxGeometry x="375" y="790" width="100" height="40" as="geometry" />
        </mxCell>
        <mxCell id="hk0QQ_2dUpYuEPjXE7zu-116" style="edgeStyle=none;shape=link;rounded=0;orthogonalLoop=1;jettySize=auto;html=1;exitX=0.5;exitY=1;exitDx=0;exitDy=0;entryX=0.25;entryY=0;entryDx=0;entryDy=0;strokeWidth=2;align=center;verticalAlign=middle;fontFamily=Helvetica;fontSize=14;fontColor=default;labelBackgroundColor=default;endArrow=none;endFill=0;" edge="1" parent="hk0QQ_2dUpYuEPjXE7zu-1" source="hk0QQ_2dUpYuEPjXE7zu-118" target="hk0QQ_2dUpYuEPjXE7zu-32">
          <mxGeometry relative="1" as="geometry" />
        </mxCell>
        <mxCell id="EvbnB_FFHpa_hRASt3lz-11" style="edgeStyle=none;curved=1;rounded=0;orthogonalLoop=1;jettySize=auto;html=1;exitX=1;exitY=0;exitDx=0;exitDy=0;entryX=0;entryY=0.5;entryDx=0;entryDy=0;fontSize=12;startSize=8;endSize=8;endArrow=none;endFill=0;strokeWidth=2;" edge="1" parent="hk0QQ_2dUpYuEPjXE7zu-1" source="hk0QQ_2dUpYuEPjXE7zu-118" target="hk0QQ_2dUpYuEPjXE7zu-211">
          <mxGeometry relative="1" as="geometry" />
        </mxCell>
        <mxCell id="hk0QQ_2dUpYuEPjXE7zu-118" value="&lt;b&gt;Inscribir&lt;/b&gt;" style="shape=rhombus;perimeter=rhombusPerimeter;whiteSpace=wrap;html=1;align=center;fontFamily=Helvetica;fontSize=14;labelBackgroundColor=default;strokeWidth=2;" vertex="1" parent="hk0QQ_2dUpYuEPjXE7zu-1">
          <mxGeometry x="431" y="30" width="120" height="60" as="geometry" />
        </mxCell>
        <mxCell id="hk0QQ_2dUpYuEPjXE7zu-119" value="ComisiÃ³n" style="ellipse;whiteSpace=wrap;html=1;align=center;verticalAlign=middle;fontFamily=Helvetica;fontSize=14;fontStyle=1;strokeWidth=2;dashed=1;dashPattern=8 8;" vertex="1" parent="hk0QQ_2dUpYuEPjXE7zu-1">
          <mxGeometry x="-955" y="790" width="100" height="50" as="geometry" />
        </mxCell>
        <mxCell id="hk0QQ_2dUpYuEPjXE7zu-120" style="edgeStyle=none;shape=connector;rounded=0;orthogonalLoop=1;jettySize=auto;html=1;exitX=0.5;exitY=0;exitDx=0;exitDy=0;entryX=0.407;entryY=0.987;entryDx=0;entryDy=0;entryPerimeter=0;strokeWidth=2;align=center;verticalAlign=middle;fontFamily=Helvetica;fontSize=14;fontColor=default;labelBackgroundColor=default;endArrow=none;endFill=0;" edge="1" parent="hk0QQ_2dUpYuEPjXE7zu-1" source="hk0QQ_2dUpYuEPjXE7zu-119" target="hk0QQ_2dUpYuEPjXE7zu-57">
          <mxGeometry relative="1" as="geometry" />
        </mxCell>
        <mxCell id="hk0QQ_2dUpYuEPjXE7zu-121" value="Salario" style="ellipse;whiteSpace=wrap;html=1;align=center;verticalAlign=middle;fontFamily=Helvetica;fontSize=14;fontStyle=1;strokeWidth=2;" vertex="1" parent="hk0QQ_2dUpYuEPjXE7zu-1">
          <mxGeometry x="-502.5" y="865" width="100" height="50" as="geometry" />
        </mxCell>
        <mxCell id="hk0QQ_2dUpYuEPjXE7zu-122" value="Salario" style="ellipse;whiteSpace=wrap;html=1;align=center;verticalAlign=middle;fontFamily=Helvetica;fontSize=14;fontStyle=1;strokeWidth=2;" vertex="1" parent="hk0QQ_2dUpYuEPjXE7zu-1">
          <mxGeometry x="-235" y="810" width="100" height="50" as="geometry" />
        </mxCell>
        <mxCell id="hk0QQ_2dUpYuEPjXE7zu-123" style="edgeStyle=none;shape=connector;rounded=0;orthogonalLoop=1;jettySize=auto;html=1;entryX=0;entryY=0.5;entryDx=0;entryDy=0;align=center;verticalAlign=middle;fontFamily=Helvetica;fontSize=14;fontColor=default;labelBackgroundColor=default;endArrow=none;endFill=0;strokeWidth=2;" edge="1" parent="hk0QQ_2dUpYuEPjXE7zu-1" target="hk0QQ_2dUpYuEPjXE7zu-135">
          <mxGeometry relative="1" as="geometry">
            <mxPoint x="1125" y="590" as="sourcePoint" />
          </mxGeometry>
        </mxCell>
        <mxCell id="hk0QQ_2dUpYuEPjXE7zu-124" style="edgeStyle=none;shape=connector;rounded=0;orthogonalLoop=1;jettySize=auto;html=1;exitX=0.5;exitY=1;exitDx=0;exitDy=0;entryX=0.5;entryY=0;entryDx=0;entryDy=0;strokeWidth=2;align=center;verticalAlign=middle;fontFamily=Helvetica;fontSize=14;fontColor=default;labelBackgroundColor=default;endArrow=none;endFill=0;" edge="1" parent="hk0QQ_2dUpYuEPjXE7zu-1" source="hk0QQ_2dUpYuEPjXE7zu-125" target="hk0QQ_2dUpYuEPjXE7zu-172">
          <mxGeometry relative="1" as="geometry">
            <Array as="points" />
          </mxGeometry>
        </mxCell>
        <mxCell id="EvbnB_FFHpa_hRASt3lz-4" style="edgeStyle=none;curved=1;rounded=0;orthogonalLoop=1;jettySize=auto;html=1;exitX=0.75;exitY=1;exitDx=0;exitDy=0;entryX=0.5;entryY=0;entryDx=0;entryDy=0;fontSize=12;startSize=8;endSize=8;endArrow=none;endFill=0;strokeWidth=2;" edge="1" parent="hk0QQ_2dUpYuEPjXE7zu-1" source="hk0QQ_2dUpYuEPjXE7zu-125" target="EvbnB_FFHpa_hRASt3lz-3">
          <mxGeometry relative="1" as="geometry" />
        </mxCell>
        <mxCell id="hk0QQ_2dUpYuEPjXE7zu-125" value="PokÃ©mon" style="whiteSpace=wrap;html=1;align=center;strokeWidth=2;fontSize=14;" vertex="1" parent="hk0QQ_2dUpYuEPjXE7zu-1">
          <mxGeometry x="1025" y="570" width="100" height="40" as="geometry" />
        </mxCell>
        <mxCell id="hk0QQ_2dUpYuEPjXE7zu-126" style="edgeStyle=none;shape=connector;rounded=0;orthogonalLoop=1;jettySize=auto;html=1;exitX=0.5;exitY=0;exitDx=0;exitDy=0;entryX=0;entryY=0;entryDx=0;entryDy=0;align=center;verticalAlign=middle;fontFamily=Helvetica;fontSize=14;fontColor=default;labelBackgroundColor=default;endArrow=none;endFill=0;strokeWidth=2;" edge="1" parent="hk0QQ_2dUpYuEPjXE7zu-1" source="hk0QQ_2dUpYuEPjXE7zu-141" target="hk0QQ_2dUpYuEPjXE7zu-125">
          <mxGeometry relative="1" as="geometry">
            <mxPoint x="984.9999999999995" y="660" as="sourcePoint" />
          </mxGeometry>
        </mxCell>
        <mxCell id="hk0QQ_2dUpYuEPjXE7zu-127" style="edgeStyle=none;shape=connector;rounded=0;orthogonalLoop=1;jettySize=auto;html=1;exitX=1;exitY=0.5;exitDx=0;exitDy=0;align=center;verticalAlign=middle;fontFamily=Helvetica;fontSize=14;fontColor=default;labelBackgroundColor=default;endArrow=none;endFill=0;strokeWidth=2;entryX=0;entryY=0.5;entryDx=0;entryDy=0;" edge="1" parent="hk0QQ_2dUpYuEPjXE7zu-1" source="hk0QQ_2dUpYuEPjXE7zu-128" target="hk0QQ_2dUpYuEPjXE7zu-125">
          <mxGeometry relative="1" as="geometry">
            <mxPoint x="1075" y="610" as="targetPoint" />
          </mxGeometry>
        </mxCell>
        <mxCell id="hk0QQ_2dUpYuEPjXE7zu-128" value="Especie" style="ellipse;whiteSpace=wrap;html=1;align=center;fontFamily=Helvetica;fontSize=14;labelBackgroundColor=default;strokeWidth=2;" vertex="1" parent="hk0QQ_2dUpYuEPjXE7zu-1">
          <mxGeometry x="835" y="585" width="100" height="40" as="geometry" />
        </mxCell>
        <mxCell id="hk0QQ_2dUpYuEPjXE7zu-129" value="Tipo" style="ellipse;whiteSpace=wrap;html=1;align=center;fontFamily=Helvetica;fontSize=14;labelBackgroundColor=default;strokeWidth=2;" vertex="1" parent="hk0QQ_2dUpYuEPjXE7zu-1">
          <mxGeometry x="1206" y="620" width="100" height="40" as="geometry" />
        </mxCell>
        <mxCell id="hk0QQ_2dUpYuEPjXE7zu-130" style="edgeStyle=none;shape=connector;rounded=0;orthogonalLoop=1;jettySize=auto;html=1;exitX=0;exitY=0.5;exitDx=0;exitDy=0;align=center;verticalAlign=middle;fontFamily=Helvetica;fontSize=14;fontColor=default;labelBackgroundColor=default;endArrow=none;endFill=0;strokeWidth=2;" edge="1" parent="hk0QQ_2dUpYuEPjXE7zu-1" source="hk0QQ_2dUpYuEPjXE7zu-131">
          <mxGeometry relative="1" as="geometry">
            <mxPoint x="1125" y="590" as="targetPoint" />
          </mxGeometry>
        </mxCell>
        <mxCell id="hk0QQ_2dUpYuEPjXE7zu-131" value="PuntosDeCombate" style="ellipse;whiteSpace=wrap;html=1;align=center;fontFamily=Helvetica;fontSize=14;labelBackgroundColor=default;strokeWidth=2;" vertex="1" parent="hk0QQ_2dUpYuEPjXE7zu-1">
          <mxGeometry x="1186" y="510" width="150" height="40" as="geometry" />
        </mxCell>
        <mxCell id="hk0QQ_2dUpYuEPjXE7zu-132" style="edgeStyle=none;shape=connector;rounded=0;orthogonalLoop=1;jettySize=auto;html=1;exitX=0;exitY=1;exitDx=0;exitDy=0;entryX=1;entryY=0.25;entryDx=0;entryDy=0;align=center;verticalAlign=middle;fontFamily=Helvetica;fontSize=14;fontColor=default;labelBackgroundColor=default;endArrow=none;endFill=0;strokeWidth=2;" edge="1" parent="hk0QQ_2dUpYuEPjXE7zu-1" source="hk0QQ_2dUpYuEPjXE7zu-133" target="hk0QQ_2dUpYuEPjXE7zu-125">
          <mxGeometry relative="1" as="geometry" />
        </mxCell>
        <mxCell id="hk0QQ_2dUpYuEPjXE7zu-133" value="Peso" style="ellipse;whiteSpace=wrap;html=1;align=center;fontFamily=Helvetica;fontSize=14;labelBackgroundColor=default;strokeWidth=2;" vertex="1" parent="hk0QQ_2dUpYuEPjXE7zu-1">
          <mxGeometry x="1150" y="465" width="100" height="40" as="geometry" />
        </mxCell>
        <mxCell id="hk0QQ_2dUpYuEPjXE7zu-134" value="Sexo" style="ellipse;whiteSpace=wrap;html=1;align=center;fontFamily=Helvetica;fontSize=14;labelBackgroundColor=default;strokeWidth=2;" vertex="1" parent="hk0QQ_2dUpYuEPjXE7zu-1">
          <mxGeometry x="1055" y="430" width="100" height="40" as="geometry" />
        </mxCell>
        <mxCell id="hk0QQ_2dUpYuEPjXE7zu-135" value="Shiny" style="ellipse;whiteSpace=wrap;html=1;align=center;fontFamily=Helvetica;fontSize=14;labelBackgroundColor=default;strokeWidth=2;" vertex="1" parent="hk0QQ_2dUpYuEPjXE7zu-1">
          <mxGeometry x="1210" y="560" width="100" height="40" as="geometry" />
        </mxCell>
        <mxCell id="hk0QQ_2dUpYuEPjXE7zu-136" style="edgeStyle=none;shape=connector;rounded=0;orthogonalLoop=1;jettySize=auto;html=1;exitX=0.5;exitY=0;exitDx=0;exitDy=0;entryX=1;entryY=0.5;entryDx=0;entryDy=0;align=center;verticalAlign=middle;fontFamily=Helvetica;fontSize=14;fontColor=default;labelBackgroundColor=default;endArrow=none;endFill=0;strokeWidth=2;" edge="1" parent="hk0QQ_2dUpYuEPjXE7zu-1" source="hk0QQ_2dUpYuEPjXE7zu-129" target="hk0QQ_2dUpYuEPjXE7zu-125">
          <mxGeometry relative="1" as="geometry" />
        </mxCell>
        <mxCell id="hk0QQ_2dUpYuEPjXE7zu-137" style="edgeStyle=none;shape=connector;rounded=0;orthogonalLoop=1;jettySize=auto;html=1;exitX=0.5;exitY=1;exitDx=0;exitDy=0;entryX=0.652;entryY=0;entryDx=0;entryDy=0;entryPerimeter=0;align=center;verticalAlign=middle;fontFamily=Helvetica;fontSize=14;fontColor=default;labelBackgroundColor=default;endArrow=none;endFill=0;strokeWidth=2;" edge="1" parent="hk0QQ_2dUpYuEPjXE7zu-1" source="hk0QQ_2dUpYuEPjXE7zu-134" target="hk0QQ_2dUpYuEPjXE7zu-125">
          <mxGeometry relative="1" as="geometry" />
        </mxCell>
        <mxCell id="hk0QQ_2dUpYuEPjXE7zu-138" value="NombreDeUsuario" style="ellipse;whiteSpace=wrap;html=1;align=center;fontFamily=Helvetica;fontSize=14;labelBackgroundColor=default;strokeWidth=2;" vertex="1" parent="hk0QQ_2dUpYuEPjXE7zu-1">
          <mxGeometry x="435" y="840" width="150" height="40" as="geometry" />
        </mxCell>
        <mxCell id="hk0QQ_2dUpYuEPjXE7zu-139" value="" style="edgeStyle=none;shape=connector;rounded=0;orthogonalLoop=1;jettySize=auto;html=1;strokeWidth=2;align=center;verticalAlign=middle;fontFamily=Helvetica;fontSize=14;fontColor=default;labelBackgroundColor=default;endArrow=none;endFill=0;" edge="1" parent="hk0QQ_2dUpYuEPjXE7zu-1" source="hk0QQ_2dUpYuEPjXE7zu-140" target="hk0QQ_2dUpYuEPjXE7zu-125">
          <mxGeometry relative="1" as="geometry" />
        </mxCell>
        <mxCell id="hk0QQ_2dUpYuEPjXE7zu-140" value="IdPokemon" style="ellipse;whiteSpace=wrap;html=1;align=center;fontFamily=Helvetica;fontSize=14;labelBackgroundColor=default;fontStyle=4;strokeWidth=2;" vertex="1" parent="hk0QQ_2dUpYuEPjXE7zu-1">
          <mxGeometry x="925" y="445" width="100" height="40" as="geometry" />
        </mxCell>
        <mxCell id="hk0QQ_2dUpYuEPjXE7zu-141" value="Nombre" style="ellipse;whiteSpace=wrap;html=1;align=center;fontFamily=Helvetica;fontSize=14;labelBackgroundColor=default;strokeWidth=2;" vertex="1" parent="hk0QQ_2dUpYuEPjXE7zu-1">
          <mxGeometry x="850" y="530" width="100" height="40" as="geometry" />
        </mxCell>
        <mxCell id="hk0QQ_2dUpYuEPjXE7zu-142" style="edgeStyle=none;shape=link;rounded=0;orthogonalLoop=1;jettySize=auto;html=1;exitX=0.5;exitY=1;exitDx=0;exitDy=0;entryX=0.5;entryY=0;entryDx=0;entryDy=0;strokeWidth=2;align=center;verticalAlign=middle;fontFamily=Helvetica;fontSize=14;fontColor=default;labelBackgroundColor=default;endArrow=none;endFill=0;" edge="1" parent="hk0QQ_2dUpYuEPjXE7zu-1" source="hk0QQ_2dUpYuEPjXE7zu-149" target="hk0QQ_2dUpYuEPjXE7zu-147">
          <mxGeometry relative="1" as="geometry">
            <mxPoint x="1365.0000000000005" y="950" as="sourcePoint" />
            <mxPoint x="1235" y="1125" as="targetPoint" />
          </mxGeometry>
        </mxCell>
        <mxCell id="hk0QQ_2dUpYuEPjXE7zu-143" value="" style="edgeStyle=none;shape=connector;rounded=0;orthogonalLoop=1;jettySize=auto;html=1;exitX=0.5;exitY=0;exitDx=0;exitDy=0;entryX=0.5;entryY=0;entryDx=0;entryDy=0;strokeWidth=2;align=center;verticalAlign=middle;fontFamily=Helvetica;fontSize=14;fontColor=default;labelBackgroundColor=default;endArrow=none;endFill=0;" edge="1" parent="hk0QQ_2dUpYuEPjXE7zu-1" source="hk0QQ_2dUpYuEPjXE7zu-153" target="hk0QQ_2dUpYuEPjXE7zu-147">
          <mxGeometry relative="1" as="geometry">
            <mxPoint x="1326" y="1030" as="sourcePoint" />
            <mxPoint x="1326" y="1105" as="targetPoint" />
          </mxGeometry>
        </mxCell>
        <mxCell id="hk0QQ_2dUpYuEPjXE7zu-144" value="" style="edgeStyle=none;shape=connector;rounded=0;orthogonalLoop=1;jettySize=auto;html=1;strokeWidth=2;align=center;verticalAlign=middle;fontFamily=Helvetica;fontSize=14;fontColor=default;labelBackgroundColor=default;endArrow=none;endFill=0;" edge="1" parent="hk0QQ_2dUpYuEPjXE7zu-1" source="hk0QQ_2dUpYuEPjXE7zu-147" target="hk0QQ_2dUpYuEPjXE7zu-150">
          <mxGeometry relative="1" as="geometry" />
        </mxCell>
        <mxCell id="hk0QQ_2dUpYuEPjXE7zu-146" style="rounded=0;orthogonalLoop=1;jettySize=auto;html=1;exitX=1;exitY=0;exitDx=0;exitDy=0;endArrow=none;endFill=0;strokeWidth=3;" edge="1" parent="hk0QQ_2dUpYuEPjXE7zu-1" source="hk0QQ_2dUpYuEPjXE7zu-147" target="hk0QQ_2dUpYuEPjXE7zu-242">
          <mxGeometry relative="1" as="geometry" />
        </mxCell>
        <mxCell id="hk0QQ_2dUpYuEPjXE7zu-147" value="PeleaTorneo" style="shape=ext;margin=3;double=1;whiteSpace=wrap;html=1;align=center;fontFamily=Helvetica;fontSize=14;labelBackgroundColor=default;strokeWidth=2;" vertex="1" parent="hk0QQ_2dUpYuEPjXE7zu-1">
          <mxGeometry x="1295" y="900" width="100" height="40" as="geometry" />
        </mxCell>
        <mxCell id="hk0QQ_2dUpYuEPjXE7zu-148" style="edgeStyle=none;shape=connector;rounded=0;orthogonalLoop=1;jettySize=auto;html=1;exitX=0.5;exitY=0;exitDx=0;exitDy=0;strokeWidth=2;align=center;verticalAlign=middle;fontFamily=Helvetica;fontSize=14;fontColor=default;labelBackgroundColor=default;endArrow=none;endFill=0;" edge="1" parent="hk0QQ_2dUpYuEPjXE7zu-1" source="hk0QQ_2dUpYuEPjXE7zu-135" target="hk0QQ_2dUpYuEPjXE7zu-135">
          <mxGeometry relative="1" as="geometry" />
        </mxCell>
        <mxCell id="hk0QQ_2dUpYuEPjXE7zu-149" value="Componer" style="shape=rhombus;double=1;perimeter=rhombusPerimeter;whiteSpace=wrap;html=1;align=center;fontFamily=Helvetica;fontSize=14;labelBackgroundColor=default;strokeWidth=2;fontStyle=1;" vertex="1" parent="hk0QQ_2dUpYuEPjXE7zu-1">
          <mxGeometry x="1284" y="770" width="120" height="60" as="geometry" />
        </mxCell>
        <mxCell id="hk0QQ_2dUpYuEPjXE7zu-150" value="&lt;span style=&quot;border-bottom: 1px dotted&quot;&gt;NÃºmeroPelea&lt;/span&gt;" style="ellipse;whiteSpace=wrap;html=1;align=center;fontFamily=Helvetica;fontSize=14;labelBackgroundColor=default;strokeWidth=2;" vertex="1" parent="hk0QQ_2dUpYuEPjXE7zu-1">
          <mxGeometry x="1346" y="991" width="100" height="40" as="geometry" />
        </mxCell>
        <mxCell id="hk0QQ_2dUpYuEPjXE7zu-153" value="Fecha" style="ellipse;whiteSpace=wrap;html=1;align=center;fontFamily=Helvetica;fontSize=14;labelBackgroundColor=default;strokeWidth=2;" vertex="1" parent="hk0QQ_2dUpYuEPjXE7zu-1">
          <mxGeometry x="1490" y="931" width="100" height="40" as="geometry" />
        </mxCell>
        <mxCell id="hk0QQ_2dUpYuEPjXE7zu-154" value="" style="edgeStyle=none;shape=connector;rounded=0;orthogonalLoop=1;jettySize=auto;html=1;strokeWidth=2;align=center;verticalAlign=middle;fontFamily=Helvetica;fontSize=14;fontColor=default;labelBackgroundColor=default;endArrow=none;endFill=0;entryX=0;entryY=0;entryDx=0;entryDy=0;" edge="1" parent="hk0QQ_2dUpYuEPjXE7zu-1" target="hk0QQ_2dUpYuEPjXE7zu-164">
          <mxGeometry relative="1" as="geometry">
            <mxPoint x="1620.621772440497" y="1170" as="sourcePoint" />
            <mxPoint x="1755.2106920018223" y="1253.9371378441201" as="targetPoint" />
          </mxGeometry>
        </mxCell>
        <mxCell id="hk0QQ_2dUpYuEPjXE7zu-155" style="edgeStyle=none;shape=connector;rounded=0;orthogonalLoop=1;jettySize=auto;html=1;exitX=0.5;exitY=0;exitDx=0;exitDy=0;entryX=0.5;entryY=1;entryDx=0;entryDy=0;strokeWidth=2;align=center;verticalAlign=middle;fontFamily=Helvetica;fontSize=14;fontColor=default;labelBackgroundColor=default;endArrow=none;endFill=0;" edge="1" parent="hk0QQ_2dUpYuEPjXE7zu-1" source="hk0QQ_2dUpYuEPjXE7zu-156">
          <mxGeometry relative="1" as="geometry">
            <mxPoint x="1593" y="1170" as="targetPoint" />
          </mxGeometry>
        </mxCell>
        <mxCell id="hk0QQ_2dUpYuEPjXE7zu-156" value="LocaciÃ³n" style="ellipse;whiteSpace=wrap;html=1;align=center;fontFamily=Helvetica;fontSize=14;labelBackgroundColor=default;strokeWidth=2;" vertex="1" parent="hk0QQ_2dUpYuEPjXE7zu-1">
          <mxGeometry x="1544.5" y="1210" width="100" height="40" as="geometry" />
        </mxCell>
        <mxCell id="hk0QQ_2dUpYuEPjXE7zu-157" style="edgeStyle=none;shape=connector;rounded=0;orthogonalLoop=1;jettySize=auto;html=1;exitX=0.5;exitY=0;exitDx=0;exitDy=0;entryX=0.5;entryY=1;entryDx=0;entryDy=0;strokeWidth=2;align=center;verticalAlign=middle;fontFamily=Helvetica;fontSize=14;fontColor=default;labelBackgroundColor=default;endArrow=none;endFill=0;" edge="1" parent="hk0QQ_2dUpYuEPjXE7zu-1" source="hk0QQ_2dUpYuEPjXE7zu-168">
          <mxGeometry relative="1" as="geometry">
            <mxPoint x="1593" y="1170" as="targetPoint" />
          </mxGeometry>
        </mxCell>
        <mxCell id="hk0QQ_2dUpYuEPjXE7zu-158" value="Fecha" style="ellipse;whiteSpace=wrap;html=1;align=center;fontFamily=Helvetica;fontSize=14;labelBackgroundColor=default;strokeWidth=2;" vertex="1" parent="hk0QQ_2dUpYuEPjXE7zu-1">
          <mxGeometry x="1370" y="1210" width="100" height="40" as="geometry" />
        </mxCell>
        <mxCell id="hk0QQ_2dUpYuEPjXE7zu-159" style="edgeStyle=none;shape=link;rounded=0;orthogonalLoop=1;jettySize=auto;html=1;exitX=1;exitY=0.5;exitDx=0;exitDy=0;entryX=0;entryY=0.5;entryDx=0;entryDy=0;strokeWidth=2;align=center;verticalAlign=middle;fontFamily=Helvetica;fontSize=14;fontColor=default;labelBackgroundColor=default;endArrow=none;endFill=0;" edge="1" parent="hk0QQ_2dUpYuEPjXE7zu-1" source="hk0QQ_2dUpYuEPjXE7zu-160" target="hk0QQ_2dUpYuEPjXE7zu-168">
          <mxGeometry relative="1" as="geometry">
            <mxPoint x="1493" y="1150" as="targetPoint" />
          </mxGeometry>
        </mxCell>
        <mxCell id="hk0QQ_2dUpYuEPjXE7zu-160" value="Registrar" style="shape=rhombus;perimeter=rhombusPerimeter;whiteSpace=wrap;html=1;align=center;fontFamily=Helvetica;fontSize=14;labelBackgroundColor=default;strokeWidth=2;" vertex="1" parent="hk0QQ_2dUpYuEPjXE7zu-1">
          <mxGeometry x="857" y="1130" width="120" height="60" as="geometry" />
        </mxCell>
        <mxCell id="hk0QQ_2dUpYuEPjXE7zu-161" value="" style="edgeStyle=none;shape=link;rounded=0;orthogonalLoop=1;jettySize=auto;html=1;strokeWidth=2;align=center;verticalAlign=middle;fontFamily=Helvetica;fontSize=14;fontColor=default;labelBackgroundColor=default;endArrow=none;endFill=0;entryX=0.5;entryY=0;entryDx=0;entryDy=0;" edge="1" parent="hk0QQ_2dUpYuEPjXE7zu-1" source="hk0QQ_2dUpYuEPjXE7zu-163" target="hk0QQ_2dUpYuEPjXE7zu-168">
          <mxGeometry relative="1" as="geometry">
            <mxPoint x="1593.4854368932038" y="1130" as="targetPoint" />
          </mxGeometry>
        </mxCell>
        <mxCell id="hk0QQ_2dUpYuEPjXE7zu-162" style="edgeStyle=none;shape=connector;rounded=0;orthogonalLoop=1;jettySize=auto;html=1;exitX=0.5;exitY=0;exitDx=0;exitDy=0;entryX=0.5;entryY=1;entryDx=0;entryDy=0;strokeWidth=2;align=center;verticalAlign=middle;fontFamily=Helvetica;fontSize=14;fontColor=default;labelBackgroundColor=default;endArrow=classic;endFill=1;startArrow=none;startFill=0;" edge="1" parent="hk0QQ_2dUpYuEPjXE7zu-1" source="hk0QQ_2dUpYuEPjXE7zu-163" target="hk0QQ_2dUpYuEPjXE7zu-94">
          <mxGeometry relative="1" as="geometry" />
        </mxCell>
        <mxCell id="hk0QQ_2dUpYuEPjXE7zu-163" value="Pertenecer" style="shape=rhombus;double=1;perimeter=rhombusPerimeter;whiteSpace=wrap;html=1;align=center;fontFamily=Helvetica;fontSize=14;labelBackgroundColor=default;strokeWidth=2;fontStyle=1;" vertex="1" parent="hk0QQ_2dUpYuEPjXE7zu-1">
          <mxGeometry x="1515.5" y="1017" width="120" height="60" as="geometry" />
        </mxCell>
        <mxCell id="hk0QQ_2dUpYuEPjXE7zu-164" value="&lt;span style=&quot;border-bottom: 1px dotted&quot;&gt;IdDistancia&lt;/span&gt;" style="ellipse;whiteSpace=wrap;html=1;align=center;fontFamily=Helvetica;fontSize=14;labelBackgroundColor=default;strokeWidth=2;" vertex="1" parent="hk0QQ_2dUpYuEPjXE7zu-1">
          <mxGeometry x="1655.5" y="1200" width="100" height="40" as="geometry" />
        </mxCell>
        <mxCell id="hk0QQ_2dUpYuEPjXE7zu-165" value="Pertenecer" style="shape=rhombus;double=1;perimeter=rhombusPerimeter;whiteSpace=wrap;html=1;align=center;fontFamily=Helvetica;fontSize=14;labelBackgroundColor=default;strokeWidth=2;fontStyle=1;" vertex="1" parent="hk0QQ_2dUpYuEPjXE7zu-1">
          <mxGeometry x="1797.5" y="1380" width="120" height="60" as="geometry" />
        </mxCell>
        <mxCell id="hk0QQ_2dUpYuEPjXE7zu-166" value="" style="edgeStyle=none;shape=connector;rounded=0;orthogonalLoop=1;jettySize=auto;html=1;exitX=1;exitY=0;exitDx=0;exitDy=0;entryX=0.156;entryY=1.041;entryDx=0;entryDy=0;strokeWidth=2;align=center;verticalAlign=middle;fontFamily=Helvetica;fontSize=14;fontColor=default;labelBackgroundColor=default;endArrow=none;endFill=0;entryPerimeter=0;" edge="1" parent="hk0QQ_2dUpYuEPjXE7zu-1" source="hk0QQ_2dUpYuEPjXE7zu-158" target="hk0QQ_2dUpYuEPjXE7zu-168">
          <mxGeometry relative="1" as="geometry">
            <mxPoint x="1485" y="1210" as="sourcePoint" />
            <mxPoint x="1593" y="1170" as="targetPoint" />
          </mxGeometry>
        </mxCell>
        <mxCell id="hk0QQ_2dUpYuEPjXE7zu-167" style="rounded=0;orthogonalLoop=1;jettySize=auto;html=1;exitX=1;exitY=0.5;exitDx=0;exitDy=0;endArrow=none;endFill=0;fontSize=14;strokeWidth=2;" edge="1" parent="hk0QQ_2dUpYuEPjXE7zu-1" source="hk0QQ_2dUpYuEPjXE7zu-168" target="hk0QQ_2dUpYuEPjXE7zu-218">
          <mxGeometry relative="1" as="geometry" />
        </mxCell>
        <mxCell id="hk0QQ_2dUpYuEPjXE7zu-168" value="DistanciaRecorrida" style="shape=ext;margin=3;double=1;whiteSpace=wrap;html=1;align=center;fontFamily=Helvetica;fontSize=14;labelBackgroundColor=default;strokeWidth=2;" vertex="1" parent="hk0QQ_2dUpYuEPjXE7zu-1">
          <mxGeometry x="1500.5" y="1140" width="150" height="40" as="geometry" />
        </mxCell>
        <mxCell id="hk0QQ_2dUpYuEPjXE7zu-169" value="" style="edgeStyle=none;shape=link;rounded=0;orthogonalLoop=1;jettySize=auto;html=1;strokeWidth=2;align=center;verticalAlign=middle;fontFamily=Helvetica;fontSize=14;fontColor=default;labelBackgroundColor=default;endArrow=none;endFill=0;entryX=0.5;entryY=0;entryDx=0;entryDy=0;exitX=0.5;exitY=1;exitDx=0;exitDy=0;" edge="1" parent="hk0QQ_2dUpYuEPjXE7zu-1" source="hk0QQ_2dUpYuEPjXE7zu-165" target="hk0QQ_2dUpYuEPjXE7zu-170">
          <mxGeometry relative="1" as="geometry">
            <mxPoint x="1855.4566563467488" y="1560.9783281733744" as="sourcePoint" />
            <mxPoint x="1855.4854368932038" y="1615" as="targetPoint" />
          </mxGeometry>
        </mxCell>
        <mxCell id="hk0QQ_2dUpYuEPjXE7zu-170" value="CapturaPokemon" style="shape=ext;margin=3;double=1;whiteSpace=wrap;html=1;align=center;fontFamily=Helvetica;fontSize=14;labelBackgroundColor=default;strokeWidth=2;" vertex="1" parent="hk0QQ_2dUpYuEPjXE7zu-1">
          <mxGeometry x="1785" y="1490" width="150" height="40" as="geometry" />
        </mxCell>
        <mxCell id="hk0QQ_2dUpYuEPjXE7zu-171" style="edgeStyle=none;shape=connector;rounded=0;orthogonalLoop=1;jettySize=auto;html=1;exitX=1;exitY=0.5;exitDx=0;exitDy=0;entryX=0;entryY=0.75;entryDx=0;entryDy=0;strokeWidth=2;align=center;verticalAlign=middle;fontFamily=Helvetica;fontSize=14;fontColor=default;labelBackgroundColor=default;endArrow=classic;endFill=1;" edge="1" parent="hk0QQ_2dUpYuEPjXE7zu-1" source="hk0QQ_2dUpYuEPjXE7zu-172" target="hk0QQ_2dUpYuEPjXE7zu-170">
          <mxGeometry relative="1" as="geometry" />
        </mxCell>
        <mxCell id="hk0QQ_2dUpYuEPjXE7zu-172" value="Registrar" style="shape=rhombus;perimeter=rhombusPerimeter;whiteSpace=wrap;html=1;align=center;fontFamily=Helvetica;fontSize=14;labelBackgroundColor=default;strokeWidth=2;" vertex="1" parent="hk0QQ_2dUpYuEPjXE7zu-1">
          <mxGeometry x="1015" y="1490" width="120" height="60" as="geometry" />
        </mxCell>
        <mxCell id="hk0QQ_2dUpYuEPjXE7zu-173" value="" style="edgeStyle=none;shape=connector;rounded=0;orthogonalLoop=1;jettySize=auto;html=1;strokeWidth=2;align=center;verticalAlign=middle;fontFamily=Helvetica;fontSize=14;fontColor=default;labelBackgroundColor=default;endArrow=none;endFill=0;" edge="1" parent="hk0QQ_2dUpYuEPjXE7zu-1" source="hk0QQ_2dUpYuEPjXE7zu-174" target="hk0QQ_2dUpYuEPjXE7zu-170">
          <mxGeometry relative="1" as="geometry" />
        </mxCell>
        <mxCell id="hk0QQ_2dUpYuEPjXE7zu-174" value="&lt;span style=&quot;border-bottom: 1px dotted&quot;&gt;IdCaptura&lt;/span&gt;" style="ellipse;whiteSpace=wrap;html=1;align=center;fontFamily=Helvetica;fontSize=14;labelBackgroundColor=default;strokeWidth=2;" vertex="1" parent="hk0QQ_2dUpYuEPjXE7zu-1">
          <mxGeometry x="2015" y="1510" width="100" height="40" as="geometry" />
        </mxCell>
        <mxCell id="hk0QQ_2dUpYuEPjXE7zu-175" value="" style="edgeStyle=none;shape=connector;rounded=0;orthogonalLoop=1;jettySize=auto;html=1;strokeWidth=2;align=center;verticalAlign=middle;fontFamily=Helvetica;fontSize=14;fontColor=default;labelBackgroundColor=default;endArrow=none;endFill=0;" edge="1" parent="hk0QQ_2dUpYuEPjXE7zu-1" source="hk0QQ_2dUpYuEPjXE7zu-176" target="hk0QQ_2dUpYuEPjXE7zu-68">
          <mxGeometry relative="1" as="geometry" />
        </mxCell>
        <mxCell id="hk0QQ_2dUpYuEPjXE7zu-176" value="PersonasRegistradas" style="ellipse;whiteSpace=wrap;html=1;align=center;dashed=1;fontFamily=Helvetica;fontSize=14;labelBackgroundColor=default;strokeWidth=2;" vertex="1" parent="hk0QQ_2dUpYuEPjXE7zu-1">
          <mxGeometry x="-42.5" y="895" width="145" height="40" as="geometry" />
        </mxCell>
        <mxCell id="hk0QQ_2dUpYuEPjXE7zu-177" value="" style="edgeStyle=none;shape=connector;rounded=0;orthogonalLoop=1;jettySize=auto;html=1;strokeWidth=2;align=center;verticalAlign=middle;fontFamily=Helvetica;fontSize=14;fontColor=default;labelBackgroundColor=default;endArrow=none;endFill=0;" edge="1" parent="hk0QQ_2dUpYuEPjXE7zu-1" source="hk0QQ_2dUpYuEPjXE7zu-178" target="hk0QQ_2dUpYuEPjXE7zu-68">
          <mxGeometry relative="1" as="geometry" />
        </mxCell>
        <mxCell id="hk0QQ_2dUpYuEPjXE7zu-178" value="ComisiÃ³n" style="ellipse;whiteSpace=wrap;html=1;align=center;dashed=1;fontFamily=Helvetica;fontSize=14;labelBackgroundColor=default;strokeWidth=2;" vertex="1" parent="hk0QQ_2dUpYuEPjXE7zu-1">
          <mxGeometry x="35" y="800" width="100" height="40" as="geometry" />
        </mxCell>
        <mxCell id="hk0QQ_2dUpYuEPjXE7zu-179" style="edgeStyle=none;shape=link;rounded=0;orthogonalLoop=1;jettySize=auto;html=1;exitX=1;exitY=0.5;exitDx=0;exitDy=0;entryX=0.5;entryY=0;entryDx=0;entryDy=0;strokeWidth=2;align=center;verticalAlign=middle;fontFamily=Helvetica;fontSize=14;fontColor=default;labelBackgroundColor=default;endArrow=none;endFill=0;startArrow=classic;startFill=1;" edge="1" parent="hk0QQ_2dUpYuEPjXE7zu-1" source="hk0QQ_2dUpYuEPjXE7zu-227" target="hk0QQ_2dUpYuEPjXE7zu-187">
          <mxGeometry relative="1" as="geometry">
            <Array as="points">
              <mxPoint x="1570" y="-390" />
            </Array>
          </mxGeometry>
        </mxCell>
        <mxCell id="hk0QQ_2dUpYuEPjXE7zu-180" style="edgeStyle=none;shape=connector;rounded=0;orthogonalLoop=1;jettySize=auto;html=1;exitX=0.5;exitY=1;exitDx=0;exitDy=0;entryX=0.5;entryY=0;entryDx=0;entryDy=0;strokeWidth=2;align=center;verticalAlign=middle;fontFamily=Helvetica;fontSize=14;fontColor=default;labelBackgroundColor=default;endArrow=none;endFill=0;" edge="1" parent="hk0QQ_2dUpYuEPjXE7zu-1" source="hk0QQ_2dUpYuEPjXE7zu-181" target="hk0QQ_2dUpYuEPjXE7zu-190">
          <mxGeometry relative="1" as="geometry" />
        </mxCell>
        <mxCell id="hk0QQ_2dUpYuEPjXE7zu-181" value="&lt;font&gt;Evento&lt;/font&gt;" style="whiteSpace=wrap;html=1;align=center;fontSize=14;fontStyle=1;strokeWidth=2;" vertex="1" parent="hk0QQ_2dUpYuEPjXE7zu-1">
          <mxGeometry x="1165" y="-410" width="100" height="40" as="geometry" />
        </mxCell>
        <mxCell id="hk0QQ_2dUpYuEPjXE7zu-182" value="" style="edgeStyle=none;shape=link;rounded=0;orthogonalLoop=1;jettySize=auto;html=1;exitX=0.5;exitY=1;exitDx=0;exitDy=0;entryX=0;entryY=0.5;entryDx=0;entryDy=0;strokeWidth=2;align=center;verticalAlign=middle;fontFamily=Helvetica;fontSize=14;fontColor=default;fontStyle=1;labelBackgroundColor=default;endArrow=none;endFill=0;" edge="1" parent="hk0QQ_2dUpYuEPjXE7zu-1" target="hk0QQ_2dUpYuEPjXE7zu-185">
          <mxGeometry relative="1" as="geometry">
            <mxPoint x="1573" y="150" as="targetPoint" />
            <mxPoint x="1573" y="80" as="sourcePoint" />
          </mxGeometry>
        </mxCell>
        <mxCell id="hk0QQ_2dUpYuEPjXE7zu-183" style="edgeStyle=none;shape=link;rounded=0;orthogonalLoop=1;jettySize=auto;html=1;exitX=0.108;exitY=0.507;exitDx=0;exitDy=0;entryX=0.882;entryY=0.519;entryDx=0;entryDy=0;strokeWidth=2;align=center;verticalAlign=middle;fontFamily=Helvetica;fontSize=14;fontColor=default;labelBackgroundColor=default;endArrow=none;endFill=0;exitPerimeter=0;entryPerimeter=0;" edge="1" parent="hk0QQ_2dUpYuEPjXE7zu-1" source="hk0QQ_2dUpYuEPjXE7zu-185" target="hk0QQ_2dUpYuEPjXE7zu-214">
          <mxGeometry relative="1" as="geometry">
            <Array as="points">
              <mxPoint x="1521" y="60" />
            </Array>
            <mxPoint x="1521" y="120" as="sourcePoint" />
            <mxPoint x="1095" y="60" as="targetPoint" />
          </mxGeometry>
        </mxCell>
        <mxCell id="hk0QQ_2dUpYuEPjXE7zu-184" style="edgeStyle=orthogonalEdgeStyle;rounded=0;orthogonalLoop=1;jettySize=auto;html=1;entryX=0;entryY=0.5;entryDx=0;entryDy=0;strokeWidth=2;fontSize=14;" edge="1" parent="hk0QQ_2dUpYuEPjXE7zu-1">
          <mxGeometry relative="1" as="geometry">
            <mxPoint x="1523" y="59.95" as="targetPoint" />
            <mxPoint x="1507.5" y="59.95" as="sourcePoint" />
          </mxGeometry>
        </mxCell>
        <mxCell id="hk0QQ_2dUpYuEPjXE7zu-185" value="Torneo" style="shape=ext;margin=3;double=1;whiteSpace=wrap;html=1;align=center;fontFamily=Helvetica;fontSize=14;labelBackgroundColor=default;strokeWidth=2;" vertex="1" parent="hk0QQ_2dUpYuEPjXE7zu-1">
          <mxGeometry x="1523" y="40" width="100" height="40" as="geometry" />
        </mxCell>
        <mxCell id="hk0QQ_2dUpYuEPjXE7zu-186" style="edgeStyle=none;shape=link;rounded=0;orthogonalLoop=1;jettySize=auto;html=1;exitX=0.5;exitY=1;exitDx=0;exitDy=0;strokeWidth=2;align=center;verticalAlign=middle;fontFamily=Helvetica;fontSize=14;fontColor=default;labelBackgroundColor=default;endArrow=none;endFill=0;entryX=0.5;entryY=0;entryDx=0;entryDy=0;" edge="1" parent="hk0QQ_2dUpYuEPjXE7zu-1" source="hk0QQ_2dUpYuEPjXE7zu-187" target="hk0QQ_2dUpYuEPjXE7zu-185">
          <mxGeometry relative="1" as="geometry">
            <mxPoint x="1616" y="40" as="targetPoint" />
          </mxGeometry>
        </mxCell>
        <mxCell id="hk0QQ_2dUpYuEPjXE7zu-187" value="Pertenecer" style="shape=rhombus;double=1;perimeter=rhombusPerimeter;whiteSpace=wrap;html=1;align=center;fontFamily=Helvetica;fontSize=14;labelBackgroundColor=default;strokeWidth=2;fontStyle=1;" vertex="1" parent="hk0QQ_2dUpYuEPjXE7zu-1">
          <mxGeometry x="1513" y="-165" width="120" height="60" as="geometry" />
        </mxCell>
        <mxCell id="hk0QQ_2dUpYuEPjXE7zu-188" value="" style="edgeStyle=none;shape=connector;rounded=0;orthogonalLoop=1;jettySize=auto;html=1;strokeWidth=2;align=center;verticalAlign=middle;fontFamily=Helvetica;fontSize=14;fontColor=default;labelBackgroundColor=default;endArrow=none;endFill=0;" edge="1" parent="hk0QQ_2dUpYuEPjXE7zu-1" source="hk0QQ_2dUpYuEPjXE7zu-189" target="hk0QQ_2dUpYuEPjXE7zu-181">
          <mxGeometry relative="1" as="geometry" />
        </mxCell>
        <mxCell id="hk0QQ_2dUpYuEPjXE7zu-189" value="Edicion" style="ellipse;whiteSpace=wrap;html=1;align=center;fontStyle=4;fontFamily=Helvetica;fontSize=14;labelBackgroundColor=default;strokeWidth=2;" vertex="1" parent="hk0QQ_2dUpYuEPjXE7zu-1">
          <mxGeometry x="1015" y="-460" width="100" height="40" as="geometry" />
        </mxCell>
        <mxCell id="hk0QQ_2dUpYuEPjXE7zu-190" value="Fecha" style="ellipse;whiteSpace=wrap;html=1;align=center;fontFamily=Helvetica;fontSize=14;labelBackgroundColor=default;strokeWidth=2;" vertex="1" parent="hk0QQ_2dUpYuEPjXE7zu-1">
          <mxGeometry x="1165" y="-310" width="100" height="40" as="geometry" />
        </mxCell>
        <mxCell id="hk0QQ_2dUpYuEPjXE7zu-191" value="" style="edgeStyle=none;shape=connector;rounded=0;orthogonalLoop=1;jettySize=auto;html=1;strokeWidth=2;align=center;verticalAlign=middle;fontFamily=Helvetica;fontSize=14;fontColor=default;labelBackgroundColor=default;endArrow=none;endFill=0;" edge="1" parent="hk0QQ_2dUpYuEPjXE7zu-1" source="hk0QQ_2dUpYuEPjXE7zu-192" target="hk0QQ_2dUpYuEPjXE7zu-181">
          <mxGeometry relative="1" as="geometry" />
        </mxCell>
        <mxCell id="hk0QQ_2dUpYuEPjXE7zu-192" value="Ganancia" style="ellipse;whiteSpace=wrap;html=1;align=center;dashed=1;fontFamily=Helvetica;fontSize=14;labelBackgroundColor=default;strokeWidth=2;" vertex="1" parent="hk0QQ_2dUpYuEPjXE7zu-1">
          <mxGeometry x="1165" y="-530" width="100" height="40" as="geometry" />
        </mxCell>
        <mxCell id="hk0QQ_2dUpYuEPjXE7zu-193" style="edgeStyle=none;shape=link;rounded=0;orthogonalLoop=1;jettySize=auto;html=1;exitX=1;exitY=0.5;exitDx=0;exitDy=0;entryX=0;entryY=0.5;entryDx=0;entryDy=0;strokeWidth=2;align=center;verticalAlign=middle;fontFamily=Helvetica;fontSize=14;fontColor=default;labelBackgroundColor=default;endArrow=none;endFill=0;" edge="1" parent="hk0QQ_2dUpYuEPjXE7zu-1" source="hk0QQ_2dUpYuEPjXE7zu-195" target="hk0QQ_2dUpYuEPjXE7zu-209">
          <mxGeometry relative="1" as="geometry" />
        </mxCell>
        <mxCell id="hk0QQ_2dUpYuEPjXE7zu-194" style="rounded=0;orthogonalLoop=1;jettySize=auto;html=1;exitX=1;exitY=0;exitDx=0;exitDy=0;entryX=0.5;entryY=1;entryDx=0;entryDy=0;endArrow=none;endFill=0;strokeWidth=2;fontSize=14;" edge="1" parent="hk0QQ_2dUpYuEPjXE7zu-1" source="hk0QQ_2dUpYuEPjXE7zu-195" target="hk0QQ_2dUpYuEPjXE7zu-219">
          <mxGeometry relative="1" as="geometry" />
        </mxCell>
        <mxCell id="hk0QQ_2dUpYuEPjXE7zu-195" value="&lt;font&gt;Alimento&lt;/font&gt;" style="whiteSpace=wrap;html=1;align=center;fontSize=14;fontStyle=1;strokeWidth=2;" vertex="1" parent="hk0QQ_2dUpYuEPjXE7zu-1">
          <mxGeometry x="-1260" y="680" width="90" height="40" as="geometry" />
        </mxCell>
        <mxCell id="hk0QQ_2dUpYuEPjXE7zu-196" value="" style="edgeStyle=none;shape=connector;rounded=0;orthogonalLoop=1;jettySize=auto;html=1;strokeWidth=2;align=center;verticalAlign=middle;fontFamily=Helvetica;fontSize=14;fontColor=default;labelBackgroundColor=default;endArrow=none;endFill=0;" edge="1" parent="hk0QQ_2dUpYuEPjXE7zu-1" source="hk0QQ_2dUpYuEPjXE7zu-197" target="hk0QQ_2dUpYuEPjXE7zu-195">
          <mxGeometry relative="1" as="geometry" />
        </mxCell>
        <mxCell id="hk0QQ_2dUpYuEPjXE7zu-197" value="Tipo" style="ellipse;whiteSpace=wrap;html=1;align=center;fontFamily=Helvetica;fontSize=14;labelBackgroundColor=default;strokeWidth=2;" vertex="1" parent="hk0QQ_2dUpYuEPjXE7zu-1">
          <mxGeometry x="-1460" y="670" width="100" height="40" as="geometry" />
        </mxCell>
        <mxCell id="hk0QQ_2dUpYuEPjXE7zu-198" value="" style="edgeStyle=none;shape=connector;rounded=0;orthogonalLoop=1;jettySize=auto;html=1;strokeWidth=2;align=center;verticalAlign=middle;fontFamily=Helvetica;fontSize=14;fontColor=default;labelBackgroundColor=default;endArrow=none;endFill=0;" edge="1" parent="hk0QQ_2dUpYuEPjXE7zu-1" source="hk0QQ_2dUpYuEPjXE7zu-199" target="hk0QQ_2dUpYuEPjXE7zu-195">
          <mxGeometry relative="1" as="geometry" />
        </mxCell>
        <mxCell id="hk0QQ_2dUpYuEPjXE7zu-199" value="Nombre" style="ellipse;whiteSpace=wrap;html=1;align=center;fontFamily=Helvetica;fontSize=14;labelBackgroundColor=default;strokeWidth=2;" vertex="1" parent="hk0QQ_2dUpYuEPjXE7zu-1">
          <mxGeometry x="-1370" y="720" width="100" height="40" as="geometry" />
        </mxCell>
        <mxCell id="hk0QQ_2dUpYuEPjXE7zu-200" value="" style="edgeStyle=none;shape=connector;rounded=0;orthogonalLoop=1;jettySize=auto;html=1;strokeWidth=2;align=center;verticalAlign=middle;fontFamily=Helvetica;fontSize=14;fontColor=default;labelBackgroundColor=default;endArrow=none;endFill=0;" edge="1" parent="hk0QQ_2dUpYuEPjXE7zu-1" source="hk0QQ_2dUpYuEPjXE7zu-201" target="hk0QQ_2dUpYuEPjXE7zu-195">
          <mxGeometry relative="1" as="geometry" />
        </mxCell>
        <mxCell id="hk0QQ_2dUpYuEPjXE7zu-201" value="Perecedero" style="ellipse;whiteSpace=wrap;html=1;align=center;fontFamily=Helvetica;fontSize=14;labelBackgroundColor=default;strokeWidth=2;dashed=1;" vertex="1" parent="hk0QQ_2dUpYuEPjXE7zu-1">
          <mxGeometry x="-1290" y="785" width="100" height="40" as="geometry" />
        </mxCell>
        <mxCell id="hk0QQ_2dUpYuEPjXE7zu-202" value="" style="edgeStyle=none;shape=connector;rounded=0;orthogonalLoop=1;jettySize=auto;html=1;strokeWidth=2;align=center;verticalAlign=middle;fontFamily=Helvetica;fontSize=14;fontColor=default;labelBackgroundColor=default;endArrow=none;endFill=0;" edge="1" parent="hk0QQ_2dUpYuEPjXE7zu-1" source="hk0QQ_2dUpYuEPjXE7zu-203" target="hk0QQ_2dUpYuEPjXE7zu-195">
          <mxGeometry relative="1" as="geometry" />
        </mxCell>
        <mxCell id="hk0QQ_2dUpYuEPjXE7zu-203" value="Fecha de caducidad" style="ellipse;whiteSpace=wrap;html=1;align=center;fontFamily=Helvetica;fontSize=14;labelBackgroundColor=default;strokeWidth=2;" vertex="1" parent="hk0QQ_2dUpYuEPjXE7zu-1">
          <mxGeometry x="-1160" y="790" width="140" height="60" as="geometry" />
        </mxCell>
        <mxCell id="hk0QQ_2dUpYuEPjXE7zu-204" value="" style="edgeStyle=none;shape=connector;rounded=0;orthogonalLoop=1;jettySize=auto;html=1;strokeWidth=2;align=center;verticalAlign=middle;fontFamily=Helvetica;fontSize=14;fontColor=default;labelBackgroundColor=default;endArrow=none;endFill=0;" edge="1" parent="hk0QQ_2dUpYuEPjXE7zu-1" source="hk0QQ_2dUpYuEPjXE7zu-205" target="hk0QQ_2dUpYuEPjXE7zu-195">
          <mxGeometry relative="1" as="geometry" />
        </mxCell>
        <mxCell id="hk0QQ_2dUpYuEPjXE7zu-205" value="Precio" style="ellipse;whiteSpace=wrap;html=1;align=center;fontFamily=Helvetica;fontSize=14;labelBackgroundColor=default;strokeWidth=2;" vertex="1" parent="hk0QQ_2dUpYuEPjXE7zu-1">
          <mxGeometry x="-1480" y="605" width="100" height="40" as="geometry" />
        </mxCell>
        <mxCell id="hk0QQ_2dUpYuEPjXE7zu-206" value="" style="edgeStyle=none;shape=connector;rounded=0;orthogonalLoop=1;jettySize=auto;html=1;strokeWidth=2;align=center;verticalAlign=middle;fontFamily=Helvetica;fontSize=14;fontColor=default;labelBackgroundColor=default;endArrow=none;endFill=0;" edge="1" parent="hk0QQ_2dUpYuEPjXE7zu-1" source="hk0QQ_2dUpYuEPjXE7zu-207" target="hk0QQ_2dUpYuEPjXE7zu-195">
          <mxGeometry relative="1" as="geometry" />
        </mxCell>
        <mxCell id="hk0QQ_2dUpYuEPjXE7zu-207" value="Precio con IVA" style="ellipse;whiteSpace=wrap;html=1;align=center;dashed=1;fontFamily=Helvetica;fontSize=14;labelBackgroundColor=default;strokeWidth=2;" vertex="1" parent="hk0QQ_2dUpYuEPjXE7zu-1">
          <mxGeometry x="-1250" y="580" width="100" height="40" as="geometry" />
        </mxCell>
        <mxCell id="hk0QQ_2dUpYuEPjXE7zu-208" value="" style="edgeStyle=none;shape=connector;rounded=0;orthogonalLoop=1;jettySize=auto;html=1;strokeWidth=2;align=center;verticalAlign=middle;fontFamily=Helvetica;fontSize=14;fontColor=default;labelBackgroundColor=default;endArrow=classic;endFill=1;entryX=0;entryY=0.5;entryDx=0;entryDy=0;" edge="1" parent="hk0QQ_2dUpYuEPjXE7zu-1" source="hk0QQ_2dUpYuEPjXE7zu-209" target="hk0QQ_2dUpYuEPjXE7zu-57">
          <mxGeometry relative="1" as="geometry">
            <mxPoint x="-855" y="722" as="targetPoint" />
          </mxGeometry>
        </mxCell>
        <mxCell id="hk0QQ_2dUpYuEPjXE7zu-209" value="Vender" style="shape=rhombus;perimeter=rhombusPerimeter;whiteSpace=wrap;html=1;align=center;fontFamily=Helvetica;fontSize=14;labelBackgroundColor=default;strokeWidth=2;" vertex="1" parent="hk0QQ_2dUpYuEPjXE7zu-1">
          <mxGeometry x="-1045" y="670" width="120" height="60" as="geometry" />
        </mxCell>
        <mxCell id="hk0QQ_2dUpYuEPjXE7zu-211" value="Fecha" style="ellipse;whiteSpace=wrap;html=1;align=center;fontFamily=Helvetica;fontSize=14;labelBackgroundColor=default;strokeWidth=2;" vertex="1" parent="hk0QQ_2dUpYuEPjXE7zu-1">
          <mxGeometry x="520" y="-60" width="100" height="40" as="geometry" />
        </mxCell>
        <mxCell id="hk0QQ_2dUpYuEPjXE7zu-212" style="edgeStyle=none;shape=connector;rounded=0;orthogonalLoop=1;jettySize=auto;html=1;exitX=1;exitY=0.5;exitDx=0;exitDy=0;entryX=0;entryY=0.5;entryDx=0;entryDy=0;strokeWidth=2;align=center;verticalAlign=middle;fontFamily=Helvetica;fontSize=14;fontColor=default;labelBackgroundColor=default;endArrow=none;endFill=0;" edge="1" parent="hk0QQ_2dUpYuEPjXE7zu-1" source="hk0QQ_2dUpYuEPjXE7zu-213" target="hk0QQ_2dUpYuEPjXE7zu-181">
          <mxGeometry relative="1" as="geometry" />
        </mxCell>
        <mxCell id="hk0QQ_2dUpYuEPjXE7zu-213" value="Trabajar" style="shape=rhombus;perimeter=rhombusPerimeter;whiteSpace=wrap;html=1;align=center;fontFamily=Helvetica;fontSize=14;labelBackgroundColor=default;strokeWidth=2;" vertex="1" parent="hk0QQ_2dUpYuEPjXE7zu-1">
          <mxGeometry x="-510" y="-430.0034554036458" width="120" height="60" as="geometry" />
        </mxCell>
        <mxCell id="hk0QQ_2dUpYuEPjXE7zu-214" value="&lt;b&gt;Premiar&lt;/b&gt;" style="shape=rhombus;perimeter=rhombusPerimeter;whiteSpace=wrap;html=1;align=center;fontFamily=Helvetica;fontSize=14;labelBackgroundColor=default;strokeWidth=2;" vertex="1" parent="hk0QQ_2dUpYuEPjXE7zu-1">
          <mxGeometry x="975" y="30" width="120" height="60" as="geometry" />
        </mxCell>
        <mxCell id="EvbnB_FFHpa_hRASt3lz-12" value="" style="edgeStyle=none;curved=1;rounded=0;orthogonalLoop=1;jettySize=auto;html=1;fontSize=12;startSize=8;endSize=8;endArrow=none;endFill=0;strokeWidth=2;" edge="1" parent="hk0QQ_2dUpYuEPjXE7zu-1" source="hk0QQ_2dUpYuEPjXE7zu-215" target="hk0QQ_2dUpYuEPjXE7zu-118">
          <mxGeometry relative="1" as="geometry" />
        </mxCell>
        <mxCell id="hk0QQ_2dUpYuEPjXE7zu-215" value="Costo" style="ellipse;whiteSpace=wrap;html=1;align=center;fontFamily=Helvetica;fontSize=14;labelBackgroundColor=default;strokeWidth=2;" vertex="1" parent="hk0QQ_2dUpYuEPjXE7zu-1">
          <mxGeometry x="555" y="-10" width="100" height="40" as="geometry" />
        </mxCell>
        <mxCell id="hk0QQ_2dUpYuEPjXE7zu-216" style="edgeStyle=orthogonalEdgeStyle;rounded=0;orthogonalLoop=1;jettySize=auto;html=1;exitX=1;exitY=0.5;exitDx=0;exitDy=0;entryX=0;entryY=1;entryDx=0;entryDy=0;endArrow=none;endFill=0;strokeWidth=3;" edge="1" parent="hk0QQ_2dUpYuEPjXE7zu-1" source="hk0QQ_2dUpYuEPjXE7zu-217" target="hk0QQ_2dUpYuEPjXE7zu-231">
          <mxGeometry relative="1" as="geometry" />
        </mxCell>
        <mxCell id="hk0QQ_2dUpYuEPjXE7zu-217" value="&lt;span style=&quot;font-weight: normal;&quot;&gt;MontoTotal&lt;/span&gt;" style="ellipse;whiteSpace=wrap;html=1;align=center;verticalAlign=middle;fontFamily=Helvetica;fontSize=14;fontStyle=1;strokeWidth=2;dashed=1;dashPattern=8 8;" vertex="1" parent="hk0QQ_2dUpYuEPjXE7zu-1">
          <mxGeometry x="-1450" y="380" width="100" height="50" as="geometry" />
        </mxCell>
        <mxCell id="hk0QQ_2dUpYuEPjXE7zu-218" value="DistanciaAcumulada" style="ellipse;whiteSpace=wrap;html=1;align=center;fontFamily=Helvetica;fontSize=14;labelBackgroundColor=default;strokeWidth=2;dashed=1;dashPattern=8 8;" vertex="1" parent="hk0QQ_2dUpYuEPjXE7zu-1">
          <mxGeometry x="1667" y="1120" width="175" height="50" as="geometry" />
        </mxCell>
        <mxCell id="hk0QQ_2dUpYuEPjXE7zu-219" value="IdAlimento" style="ellipse;whiteSpace=wrap;html=1;align=center;fontFamily=Helvetica;fontSize=14;labelBackgroundColor=default;strokeWidth=2;fontStyle=4" vertex="1" parent="hk0QQ_2dUpYuEPjXE7zu-1">
          <mxGeometry x="-1170" y="635" width="100" height="40" as="geometry" />
        </mxCell>
        <mxCell id="hk0QQ_2dUpYuEPjXE7zu-220" value="&lt;span style=&quot;border-bottom: 1px dotted;&quot;&gt;IdTorneo&lt;/span&gt;" style="ellipse;whiteSpace=wrap;html=1;align=center;strokeWidth=2;fontSize=14;" vertex="1" parent="hk0QQ_2dUpYuEPjXE7zu-1">
          <mxGeometry x="1697.5" y="40" width="100" height="40" as="geometry" />
        </mxCell>
        <mxCell id="hk0QQ_2dUpYuEPjXE7zu-221" value="d" style="text;html=1;align=center;verticalAlign=middle;whiteSpace=wrap;rounded=0;" vertex="1" parent="hk0QQ_2dUpYuEPjXE7zu-1">
          <mxGeometry x="142.5" y="110" width="60" height="30" as="geometry" />
        </mxCell>
        <mxCell id="hk0QQ_2dUpYuEPjXE7zu-222" value="" style="edgeStyle=none;shape=connector;rounded=0;orthogonalLoop=1;jettySize=auto;html=1;strokeWidth=2;align=center;verticalAlign=middle;fontFamily=Helvetica;fontSize=14;fontColor=default;labelBackgroundColor=default;endArrow=none;endFill=0;entryX=0.25;entryY=1;entryDx=0;entryDy=0;" edge="1" parent="hk0QQ_2dUpYuEPjXE7zu-1" source="hk0QQ_2dUpYuEPjXE7zu-223" target="hk0QQ_2dUpYuEPjXE7zu-68">
          <mxGeometry relative="1" as="geometry">
            <mxPoint x="-70" y="890" as="targetPoint" />
          </mxGeometry>
        </mxCell>
        <mxCell id="hk0QQ_2dUpYuEPjXE7zu-223" value="&lt;b&gt;EsJugador&lt;/b&gt;" style="ellipse;whiteSpace=wrap;html=1;align=center;fontFamily=Helvetica;fontSize=14;labelBackgroundColor=default;strokeWidth=2;" vertex="1" parent="hk0QQ_2dUpYuEPjXE7zu-1">
          <mxGeometry x="-169" y="891" width="100" height="40" as="geometry" />
        </mxCell>
        <mxCell id="hk0QQ_2dUpYuEPjXE7zu-224" value="&lt;b&gt;Asistir&lt;/b&gt;" style="shape=rhombus;perimeter=rhombusPerimeter;whiteSpace=wrap;html=1;align=center;fontFamily=Helvetica;fontSize=14;labelBackgroundColor=default;strokeWidth=2;" vertex="1" parent="hk0QQ_2dUpYuEPjXE7zu-1">
          <mxGeometry x="645" y="160" width="120" height="60" as="geometry" />
        </mxCell>
        <mxCell id="hk0QQ_2dUpYuEPjXE7zu-225" style="rounded=0;orthogonalLoop=1;jettySize=auto;html=1;exitX=0.5;exitY=0;exitDx=0;exitDy=0;endArrow=none;endFill=0;strokeWidth=2;" edge="1" parent="hk0QQ_2dUpYuEPjXE7zu-1" source="hk0QQ_2dUpYuEPjXE7zu-224">
          <mxGeometry relative="1" as="geometry">
            <mxPoint x="713" y="-190" as="sourcePoint" />
            <mxPoint x="1170" y="-370" as="targetPoint" />
            <Array as="points">
              <mxPoint x="700" y="-370" />
            </Array>
          </mxGeometry>
        </mxCell>
        <mxCell id="hk0QQ_2dUpYuEPjXE7zu-226" value="" style="edgeStyle=none;shape=link;rounded=0;orthogonalLoop=1;jettySize=auto;html=1;exitX=1;exitY=0.5;exitDx=0;exitDy=0;entryX=0.5;entryY=0;entryDx=0;entryDy=0;strokeWidth=2;align=center;verticalAlign=middle;fontFamily=Helvetica;fontSize=14;fontColor=default;labelBackgroundColor=default;endArrow=none;endFill=0;startArrow=classic;startFill=1;" edge="1" parent="hk0QQ_2dUpYuEPjXE7zu-1" source="hk0QQ_2dUpYuEPjXE7zu-181" target="hk0QQ_2dUpYuEPjXE7zu-227">
          <mxGeometry relative="1" as="geometry">
            <Array as="points" />
            <mxPoint x="1265" y="-390" as="sourcePoint" />
            <mxPoint x="1573" y="-165" as="targetPoint" />
          </mxGeometry>
        </mxCell>
        <mxCell id="hk0QQ_2dUpYuEPjXE7zu-227" value="" style="triangle;whiteSpace=wrap;html=1;rotation=-180;fillStyle=solid;fillColor=#000000;strokeColor=#ffffff;" vertex="1" parent="hk0QQ_2dUpYuEPjXE7zu-1">
          <mxGeometry x="1265" y="-400" width="15" height="20" as="geometry" />
        </mxCell>
        <mxCell id="hk0QQ_2dUpYuEPjXE7zu-228" value="Ganador" style="ellipse;whiteSpace=wrap;html=1;align=center;verticalAlign=middle;fontFamily=Helvetica;fontSize=14;fontStyle=1;strokeWidth=2;dashed=1;dashPattern=8 8;" vertex="1" parent="hk0QQ_2dUpYuEPjXE7zu-1">
          <mxGeometry x="1675.5" y="-70" width="100" height="50" as="geometry" />
        </mxCell>
        <mxCell id="hk0QQ_2dUpYuEPjXE7zu-229" style="rounded=0;orthogonalLoop=1;jettySize=auto;html=1;endArrow=none;endFill=0;strokeWidth=2;" edge="1" parent="hk0QQ_2dUpYuEPjXE7zu-1" source="hk0QQ_2dUpYuEPjXE7zu-228">
          <mxGeometry relative="1" as="geometry">
            <mxPoint x="1610" y="40" as="targetPoint" />
          </mxGeometry>
        </mxCell>
        <mxCell id="hk0QQ_2dUpYuEPjXE7zu-231" value="Comprar" style="shape=rhombus;perimeter=rhombusPerimeter;whiteSpace=wrap;html=1;align=center;fontFamily=Helvetica;fontSize=14;labelBackgroundColor=default;strokeWidth=2;" vertex="1" parent="hk0QQ_2dUpYuEPjXE7zu-1">
          <mxGeometry x="-1320" y="315" width="120" height="60" as="geometry" />
        </mxCell>
        <mxCell id="hk0QQ_2dUpYuEPjXE7zu-232" value="" style="edgeStyle=none;shape=connector;rounded=0;orthogonalLoop=1;jettySize=auto;html=1;strokeWidth=2;align=center;verticalAlign=middle;fontFamily=Helvetica;fontSize=14;fontColor=default;labelBackgroundColor=default;endArrow=none;endFill=0;exitX=0.5;exitY=1;exitDx=0;exitDy=0;entryX=0;entryY=0;entryDx=0;entryDy=0;" edge="1" parent="hk0QQ_2dUpYuEPjXE7zu-1" source="hk0QQ_2dUpYuEPjXE7zu-231" target="hk0QQ_2dUpYuEPjXE7zu-195">
          <mxGeometry relative="1" as="geometry">
            <mxPoint x="-1231" y="440" as="sourcePoint" />
            <mxPoint x="-1240" y="500" as="targetPoint" />
          </mxGeometry>
        </mxCell>
        <mxCell id="hk0QQ_2dUpYuEPjXE7zu-233" value="MÃ©todoDePago" style="ellipse;whiteSpace=wrap;html=1;align=center;fontFamily=Helvetica;fontSize=14;labelBackgroundColor=default;strokeWidth=2;" vertex="1" parent="hk0QQ_2dUpYuEPjXE7zu-1">
          <mxGeometry x="-1230" y="260" width="160" height="40" as="geometry" />
        </mxCell>
        <mxCell id="hk0QQ_2dUpYuEPjXE7zu-234" value="Cantidad" style="ellipse;whiteSpace=wrap;html=1;align=center;fontFamily=Helvetica;fontSize=14;labelBackgroundColor=default;strokeWidth=2;" vertex="1" parent="hk0QQ_2dUpYuEPjXE7zu-1">
          <mxGeometry x="-1160" y="335" width="100" height="40" as="geometry" />
        </mxCell>
        <mxCell id="hk0QQ_2dUpYuEPjXE7zu-235" value="" style="edgeStyle=none;shape=connector;rounded=0;orthogonalLoop=1;jettySize=auto;html=1;strokeWidth=2;align=center;verticalAlign=middle;fontFamily=Helvetica;fontSize=14;fontColor=default;labelBackgroundColor=default;endArrow=none;endFill=0;entryX=1;entryY=0;entryDx=0;entryDy=0;exitX=0.5;exitY=1;exitDx=0;exitDy=0;" edge="1" parent="hk0QQ_2dUpYuEPjXE7zu-1" source="hk0QQ_2dUpYuEPjXE7zu-233" target="hk0QQ_2dUpYuEPjXE7zu-231">
          <mxGeometry relative="1" as="geometry">
            <mxPoint x="-1171" y="230" as="sourcePoint" />
            <mxPoint x="-1180" y="290" as="targetPoint" />
          </mxGeometry>
        </mxCell>
        <mxCell id="hk0QQ_2dUpYuEPjXE7zu-236" value="" style="edgeStyle=none;shape=connector;rounded=0;orthogonalLoop=1;jettySize=auto;html=1;strokeWidth=2;align=center;verticalAlign=middle;fontFamily=Helvetica;fontSize=14;fontColor=default;labelBackgroundColor=default;endArrow=none;endFill=0;entryX=0.848;entryY=0.703;entryDx=0;entryDy=0;exitX=0;exitY=0.5;exitDx=0;exitDy=0;entryPerimeter=0;" edge="1" parent="hk0QQ_2dUpYuEPjXE7zu-1" source="hk0QQ_2dUpYuEPjXE7zu-234" target="hk0QQ_2dUpYuEPjXE7zu-231">
          <mxGeometry relative="1" as="geometry">
            <mxPoint x="-1080" y="420" as="sourcePoint" />
            <mxPoint x="-1160" y="450" as="targetPoint" />
          </mxGeometry>
        </mxCell>
        <mxCell id="hk0QQ_2dUpYuEPjXE7zu-237" value="&lt;b&gt;Poseer&lt;/b&gt;" style="shape=rhombus;perimeter=rhombusPerimeter;whiteSpace=wrap;html=1;align=center;fontFamily=Helvetica;fontSize=14;labelBackgroundColor=default;strokeWidth=2;" vertex="1" parent="hk0QQ_2dUpYuEPjXE7zu-1">
          <mxGeometry x="800" y="740" width="120" height="60" as="geometry" />
        </mxCell>
        <mxCell id="hk0QQ_2dUpYuEPjXE7zu-238" style="edgeStyle=none;shape=connector;rounded=0;orthogonalLoop=1;jettySize=auto;html=1;exitX=1;exitY=0.5;exitDx=0;exitDy=0;entryX=0;entryY=0.5;entryDx=0;entryDy=0;align=center;verticalAlign=middle;fontFamily=Helvetica;fontSize=14;fontColor=default;labelBackgroundColor=default;endArrow=none;endFill=0;strokeWidth=2;startArrow=classic;startFill=1;" edge="1" parent="hk0QQ_2dUpYuEPjXE7zu-1" source="lA9MPrUu4LycIyrijNui-3" target="hk0QQ_2dUpYuEPjXE7zu-237">
          <mxGeometry relative="1" as="geometry">
            <mxPoint x="700" y="750" as="sourcePoint" />
            <mxPoint x="878" y="740" as="targetPoint" />
          </mxGeometry>
        </mxCell>
        <mxCell id="hk0QQ_2dUpYuEPjXE7zu-239" style="edgeStyle=none;shape=link;rounded=0;orthogonalLoop=1;jettySize=auto;html=1;entryX=0.5;entryY=1;entryDx=0;entryDy=0;align=center;verticalAlign=middle;fontFamily=Helvetica;fontSize=14;fontColor=default;labelBackgroundColor=default;endArrow=none;endFill=0;strokeWidth=2;" edge="1" parent="hk0QQ_2dUpYuEPjXE7zu-1">
          <mxGeometry relative="1" as="geometry">
            <mxPoint x="920" y="770" as="sourcePoint" />
            <mxPoint x="1035" y="610" as="targetPoint" />
            <Array as="points">
              <mxPoint x="1035" y="770" />
            </Array>
          </mxGeometry>
        </mxCell>
        <mxCell id="hk0QQ_2dUpYuEPjXE7zu-240" value="Fecha" style="ellipse;whiteSpace=wrap;html=1;align=center;fontFamily=Helvetica;fontSize=14;labelBackgroundColor=default;strokeWidth=2;" vertex="1" parent="hk0QQ_2dUpYuEPjXE7zu-1">
          <mxGeometry x="1155" y="1460" width="100" height="40" as="geometry" />
        </mxCell>
        <mxCell id="hk0QQ_2dUpYuEPjXE7zu-241" value="" style="edgeStyle=none;shape=connector;rounded=0;orthogonalLoop=1;jettySize=auto;html=1;strokeWidth=2;align=center;verticalAlign=middle;fontFamily=Helvetica;fontSize=14;fontColor=default;labelBackgroundColor=default;endArrow=none;endFill=0;exitX=1;exitY=0;exitDx=0;exitDy=0;entryX=0;entryY=0.5;entryDx=0;entryDy=0;" edge="1" parent="hk0QQ_2dUpYuEPjXE7zu-1" source="hk0QQ_2dUpYuEPjXE7zu-172" target="hk0QQ_2dUpYuEPjXE7zu-240">
          <mxGeometry relative="1" as="geometry">
            <mxPoint x="1220" y="1567" as="sourcePoint" />
            <mxPoint x="1260" y="1530" as="targetPoint" />
          </mxGeometry>
        </mxCell>
        <mxCell id="hk0QQ_2dUpYuEPjXE7zu-242" value="Fase" style="ellipse;whiteSpace=wrap;html=1;align=center;fontFamily=Helvetica;fontSize=14;labelBackgroundColor=default;strokeWidth=2;" vertex="1" parent="hk0QQ_2dUpYuEPjXE7zu-1">
          <mxGeometry x="1404" y="845" width="100" height="40" as="geometry" />
        </mxCell>
        <mxCell id="hk0QQ_2dUpYuEPjXE7zu-245" style="rounded=0;orthogonalLoop=1;jettySize=auto;html=1;exitX=0.5;exitY=0;exitDx=0;exitDy=0;entryX=0.25;entryY=1;entryDx=0;entryDy=0;endArrow=none;endFill=0;" edge="1" parent="hk0QQ_2dUpYuEPjXE7zu-1" source="hk0QQ_2dUpYuEPjXE7zu-246" target="hk0QQ_2dUpYuEPjXE7zu-168">
          <mxGeometry relative="1" as="geometry" />
        </mxCell>
        <mxCell id="hk0QQ_2dUpYuEPjXE7zu-246" value="Hora" style="ellipse;whiteSpace=wrap;html=1;align=center;fontFamily=Helvetica;fontSize=14;labelBackgroundColor=default;strokeWidth=2;" vertex="1" parent="hk0QQ_2dUpYuEPjXE7zu-1">
          <mxGeometry x="1460" y="1260" width="100" height="40" as="geometry" />
        </mxCell>
        <mxCell id="hk0QQ_2dUpYuEPjXE7zu-247" style="rounded=0;orthogonalLoop=1;jettySize=auto;html=1;exitX=0.5;exitY=1;exitDx=0;exitDy=0;entryX=0;entryY=0;entryDx=0;entryDy=0;endArrow=none;endFill=0;" edge="1" parent="hk0QQ_2dUpYuEPjXE7zu-1" source="hk0QQ_2dUpYuEPjXE7zu-248" target="hk0QQ_2dUpYuEPjXE7zu-172">
          <mxGeometry relative="1" as="geometry" />
        </mxCell>
        <mxCell id="hk0QQ_2dUpYuEPjXE7zu-248" value="Hora" style="ellipse;whiteSpace=wrap;html=1;align=center;fontFamily=Helvetica;fontSize=14;labelBackgroundColor=default;strokeWidth=2;" vertex="1" parent="hk0QQ_2dUpYuEPjXE7zu-1">
          <mxGeometry x="925" y="1420" width="100" height="40" as="geometry" />
        </mxCell>
        <mxCell id="hk0QQ_2dUpYuEPjXE7zu-249" style="edgeStyle=none;shape=connector;rounded=0;orthogonalLoop=1;jettySize=auto;html=1;exitX=0.5;exitY=1;exitDx=0;exitDy=0;entryX=0;entryY=0;entryDx=0;entryDy=0;strokeColor=default;strokeWidth=3;align=center;verticalAlign=middle;fontFamily=Helvetica;fontSize=11;fontColor=default;labelBackgroundColor=default;endArrow=none;endFill=0;" edge="1" parent="hk0QQ_2dUpYuEPjXE7zu-1" source="hk0QQ_2dUpYuEPjXE7zu-250" target="hk0QQ_2dUpYuEPjXE7zu-214">
          <mxGeometry relative="1" as="geometry" />
        </mxCell>
        <mxCell id="hk0QQ_2dUpYuEPjXE7zu-250" value="CantidadAPremiar" style="ellipse;whiteSpace=wrap;html=1;align=center;fontFamily=Helvetica;fontSize=14;labelBackgroundColor=default;strokeWidth=2;" vertex="1" parent="hk0QQ_2dUpYuEPjXE7zu-1">
          <mxGeometry x="835" y="-40" width="140" height="40" as="geometry" />
        </mxCell>
        <mxCell id="EvbnB_FFHpa_hRASt3lz-5" style="edgeStyle=none;curved=1;rounded=0;orthogonalLoop=1;jettySize=auto;html=1;exitX=1;exitY=1;exitDx=0;exitDy=0;entryX=0.25;entryY=0;entryDx=0;entryDy=0;fontSize=12;endArrow=none;endFill=0;strokeWidth=2;shape=link;" edge="1" parent="hk0QQ_2dUpYuEPjXE7zu-1" source="EvbnB_FFHpa_hRASt3lz-3" target="hk0QQ_2dUpYuEPjXE7zu-147">
          <mxGeometry relative="1" as="geometry" />
        </mxCell>
        <mxCell id="EvbnB_FFHpa_hRASt3lz-7" style="edgeStyle=none;curved=1;rounded=0;orthogonalLoop=1;jettySize=auto;html=1;exitX=0.5;exitY=1;exitDx=0;exitDy=0;entryX=0.5;entryY=0;entryDx=0;entryDy=0;fontSize=12;startSize=8;endSize=8;strokeWidth=2;endArrow=none;endFill=0;" edge="1" parent="hk0QQ_2dUpYuEPjXE7zu-1" source="EvbnB_FFHpa_hRASt3lz-3" target="EvbnB_FFHpa_hRASt3lz-6">
          <mxGeometry relative="1" as="geometry" />
        </mxCell>
        <mxCell id="EvbnB_FFHpa_hRASt3lz-3" value="&lt;b&gt;Utilizar&lt;/b&gt;" style="shape=rhombus;perimeter=rhombusPerimeter;whiteSpace=wrap;html=1;align=center;fontFamily=Helvetica;fontSize=14;labelBackgroundColor=default;strokeWidth=2;" vertex="1" parent="hk0QQ_2dUpYuEPjXE7zu-1">
          <mxGeometry x="1105" y="730" width="120" height="60" as="geometry" />
        </mxCell>
        <mxCell id="EvbnB_FFHpa_hRASt3lz-6" value="Conteo" style="ellipse;whiteSpace=wrap;html=1;align=center;fontFamily=Helvetica;fontSize=14;labelBackgroundColor=default;strokeWidth=2;dashed=1;dashPattern=8 8;" vertex="1" parent="hk0QQ_2dUpYuEPjXE7zu-1">
          <mxGeometry x="1105" y="816" width="115" height="39" as="geometry" />
        </mxCell>
        <mxCell id="EvbnB_FFHpa_hRASt3lz-9" style="edgeStyle=orthogonalEdgeStyle;rounded=0;orthogonalLoop=1;jettySize=auto;html=1;exitX=1;exitY=0.5;exitDx=0;exitDy=0;fontSize=12;strokeWidth=2;endArrow=none;endFill=0;entryX=0;entryY=1;entryDx=0;entryDy=0;shape=link;" edge="1" parent="hk0QQ_2dUpYuEPjXE7zu-1" source="EvbnB_FFHpa_hRASt3lz-8" target="hk0QQ_2dUpYuEPjXE7zu-32">
          <mxGeometry relative="1" as="geometry">
            <mxPoint x="480" y="-10" as="targetPoint" />
            <Array as="points">
              <mxPoint x="545" y="500" />
            </Array>
          </mxGeometry>
        </mxCell>
        <mxCell id="gabMD7fEGleIi3QeoWSj-1" style="rounded=0;orthogonalLoop=1;jettySize=auto;html=1;exitX=1;exitY=1;exitDx=0;exitDy=0;entryX=0.5;entryY=0;entryDx=0;entryDy=0;endArrow=none;endFill=0;strokeWidth=3;" edge="1" parent="hk0QQ_2dUpYuEPjXE7zu-1" source="EvbnB_FFHpa_hRASt3lz-8" target="gabMD7fEGleIi3QeoWSj-0">
          <mxGeometry relative="1" as="geometry" />
        </mxCell>
        <mxCell id="EvbnB_FFHpa_hRASt3lz-8" value="&lt;b&gt;Registrar&lt;/b&gt;" style="shape=rhombus;perimeter=rhombusPerimeter;whiteSpace=wrap;html=1;align=center;fontFamily=Helvetica;fontSize=14;labelBackgroundColor=default;strokeWidth=2;" vertex="1" parent="hk0QQ_2dUpYuEPjXE7zu-1">
          <mxGeometry x="250" y="470" width="120" height="60" as="geometry" />
        </mxCell>
        <mxCell id="lA9MPrUu4LycIyrijNui-2" value="&lt;b&gt;Asociar&lt;/b&gt;" style="shape=rhombus;double=1;perimeter=rhombusPerimeter;whiteSpace=wrap;html=1;align=center;strokeWidth=2;" vertex="1" parent="hk0QQ_2dUpYuEPjXE7zu-1">
          <mxGeometry x="555" y="620" width="120" height="60" as="geometry" />
        </mxCell>
        <mxCell id="lA9MPrUu4LycIyrijNui-3" value="CuentaPokemonGo" style="shape=ext;margin=3;double=1;whiteSpace=wrap;html=1;align=center;strokeWidth=2;" vertex="1" parent="hk0QQ_2dUpYuEPjXE7zu-1">
          <mxGeometry x="563" y="740" width="140" height="40" as="geometry" />
        </mxCell>
        <mxCell id="gabMD7fEGleIi3QeoWSj-0" value="Fecha" style="ellipse;whiteSpace=wrap;html=1;align=center;fontFamily=Helvetica;fontSize=14;labelBackgroundColor=default;strokeWidth=2;" vertex="1" parent="hk0QQ_2dUpYuEPjXE7zu-1">
          <mxGeometry x="315" y="580" width="100" height="40" as="geometry" />
        </mxCell>
        <mxCell id="lKOo-tH3eKse8pUAKYCZ-1" style="edgeStyle=orthogonalEdgeStyle;rounded=0;orthogonalLoop=1;jettySize=auto;html=1;exitX=1;exitY=0;exitDx=0;exitDy=0;entryX=0.25;entryY=1;entryDx=0;entryDy=0;endArrow=none;endFill=0;shape=link;" edge="1" parent="hk0QQ_2dUpYuEPjXE7zu-1" target="hk0QQ_2dUpYuEPjXE7zu-147">
          <mxGeometry relative="1" as="geometry">
            <mxPoint x="1355.0000000000005" y="935" as="targetPoint" />
            <Array as="points">
              <mxPoint x="1320" y="1027" />
            </Array>
            <mxPoint x="890" y="1027" as="sourcePoint" />
          </mxGeometry>
        </mxCell>
        <mxCell id="lKOo-tH3eKse8pUAKYCZ-2" style="edgeStyle=orthogonalEdgeStyle;rounded=0;orthogonalLoop=1;jettySize=auto;html=1;exitX=0;exitY=0.5;exitDx=0;exitDy=0;entryX=1;entryY=1;entryDx=0;entryDy=0;" edge="1" parent="hk0QQ_2dUpYuEPjXE7zu-1" source="lKOo-tH3eKse8pUAKYCZ-0" target="lA9MPrUu4LycIyrijNui-3">
          <mxGeometry relative="1" as="geometry" />
        </mxCell>
        <mxCell id="lKOo-tH3eKse8pUAKYCZ-0" value="Ganar" style="shape=rhombus;perimeter=rhombusPerimeter;whiteSpace=wrap;html=1;align=center;fontFamily=Helvetica;fontSize=14;labelBackgroundColor=default;strokeWidth=2;" vertex="1" parent="hk0QQ_2dUpYuEPjXE7zu-1">
          <mxGeometry x="790" y="1017" width="120" height="60" as="geometry" />
        </mxCell>
      </root>
    </mxGraphModel>
  </diagram>
</mxfile>
